<svg width="22" height="27" viewBox="0 0 22 27" fill="none" xmlns="http://www.w3.org/2000/svg">
<path d="M21.7527 18.6429L1.25714 22.6377L1.50438 27L22 23.0052L21.7527 18.6429Z" fill="#FFE900"/>
<path d="M9.09699 7.15937V10.1763H13.1284C12.1973 12.7045 10.423 14.3382 8.36707 14.3382C7.46769 14.3369 6.58253 14.106 5.78997 13.6663C4.9974 13.2266 4.3219 12.5917 3.82327 11.8174C3.32465 11.0433 3.01827 10.1539 2.9313 9.228C2.84434 8.30214 2.97944 7.36837 3.32466 6.50939C3.66987 5.65043 4.21455 4.89275 4.91045 4.30347C5.60635 3.7142 6.43202 3.31149 7.3143 3.13103C8.1966 2.95057 9.1083 2.99792 9.96869 3.26888C10.8291 3.53983 11.6116 4.02605 12.247 4.68446L14.3178 2.54153C13.1454 1.32864 11.6519 0.502398 10.0256 0.167247C8.39944 -0.167907 6.71367 0.00306032 5.18138 0.658546C3.64909 1.31402 2.33905 2.4246 1.41683 3.84993C0.49461 5.27525 0.00158292 6.95135 6.9862e-05 8.6664C-0.00444211 9.80427 0.20964 10.9317 0.629887 11.9834C1.05014 13.0349 1.66818 13.9897 2.44813 14.7923C3.22369 15.6011 4.14581 16.2441 5.16173 16.6841C6.17767 17.1242 7.2675 17.353 8.36894 17.3571C11.2259 17.3571 13.7966 15.4543 15.3116 12.4335V16.9942H18.2286V7.15937H9.09699Z" fill="black"/>
</svg>
