<svg width="163" height="164" viewBox="0 0 163 164" fill="none" xmlns="http://www.w3.org/2000/svg">
<g clip-path="url(#clip0_4861_1694)">
<path fill-rule="evenodd" clip-rule="evenodd" d="M65.846 23.3071C64.3279 23.3086 62.8249 23.6116 61.4228 24.199C60.0208 24.7863 58.7472 25.6465 57.6748 26.7303C56.6024 27.8142 55.7522 29.1005 55.1727 30.5158C54.5933 31.9311 54.2959 33.4477 54.2976 34.979C54.2962 36.51 54.5938 38.0264 55.1734 39.4414C55.753 40.8565 56.6032 42.1425 57.6756 43.2262C58.748 44.3098 60.0214 45.1698 61.4233 45.757C62.8252 46.3442 64.328 46.6472 65.846 46.6486H77.3945V34.979C77.3962 33.4477 77.0988 31.9311 76.5193 30.5158C75.9398 29.1005 75.0896 27.8142 74.0172 26.7303C72.9448 25.6465 71.6712 24.7863 70.2692 24.199C68.8672 23.6116 67.3642 23.3086 65.846 23.3071ZM65.846 54.4313H35.0502C33.5322 54.4327 32.0294 54.7357 30.6275 55.3229C29.2256 55.9101 27.9521 56.7701 26.8797 57.8537C25.8074 58.9374 24.9571 60.2234 24.3775 61.6385C23.7979 63.0536 23.5003 64.5699 23.5017 66.101C23.5 67.6322 23.7974 69.1488 24.3769 70.5641C24.9564 71.9794 25.8066 73.2657 26.879 74.3496C27.9514 75.4334 29.2249 76.2936 30.627 76.881C32.029 77.4683 33.532 77.7714 35.0502 77.7728H65.846C67.3642 77.7714 68.8672 77.4683 70.2692 76.881C71.6712 76.2936 72.9448 75.4334 74.0172 74.3496C75.0896 73.2657 75.9398 71.9794 76.5193 70.5641C77.0988 69.1488 77.3962 67.6322 77.3945 66.101C77.3959 64.5699 77.0983 63.0536 76.5187 61.6385C75.9391 60.2234 75.0888 58.9374 74.0165 57.8537C72.9441 56.7701 71.6706 55.9101 70.2687 55.3229C68.8668 54.7357 67.364 54.4327 65.846 54.4313Z" fill="#44BEDF"/>
<path fill-rule="evenodd" clip-rule="evenodd" d="M138.986 66.101C138.988 64.5699 138.69 63.0536 138.11 61.6385C137.531 60.2234 136.681 58.9374 135.608 57.8537C134.536 56.7701 133.262 55.9101 131.86 55.3229C130.459 54.7357 128.956 54.4327 127.438 54.4313C125.92 54.4327 124.417 54.7357 123.015 55.3229C121.613 55.9101 120.34 56.7701 119.267 57.8537C118.195 58.9374 117.345 60.2234 116.765 61.6385C116.185 63.0536 115.888 64.5699 115.889 66.101V77.7728H127.438C128.956 77.7714 130.459 77.4683 131.861 76.881C133.263 76.2936 134.537 75.4334 135.609 74.3496C136.681 73.2657 137.532 71.9794 138.111 70.5641C138.69 69.1488 138.988 67.6322 138.986 66.101ZM108.19 66.101V34.979C108.192 33.4477 107.895 31.9311 107.315 30.5158C106.736 29.1005 105.885 27.8142 104.813 26.7303C103.741 25.6465 102.467 24.7863 101.065 24.199C99.663 23.6116 98.16 23.3086 96.6419 23.3071C95.1237 23.3086 93.6207 23.6116 92.2187 24.199C90.8167 24.7863 89.5431 25.6465 88.4707 26.7303C87.3983 27.8142 86.5481 29.1005 85.9686 30.5158C85.3891 31.9311 85.0917 33.4477 85.0934 34.979V66.101C85.0917 67.6322 85.3891 69.1488 85.9686 70.5641C86.5481 71.9794 87.3983 73.2657 88.4707 74.3496C89.5431 75.4334 90.8167 76.2936 92.2187 76.881C93.6207 77.4683 95.1237 77.7714 96.6419 77.7728C98.16 77.7714 99.663 77.4683 101.065 76.881C102.467 76.2936 103.741 75.4334 104.813 74.3496C105.885 73.2657 106.736 71.9794 107.315 70.5641C107.895 69.1488 108.192 67.6322 108.19 66.101Z" fill="#2EB67D"/>
<path fill-rule="evenodd" clip-rule="evenodd" d="M96.6419 140.019C98.16 140.017 99.663 139.714 101.065 139.127C102.467 138.54 103.741 137.68 104.813 136.596C105.885 135.512 106.736 134.226 107.315 132.81C107.895 131.395 108.192 129.878 108.19 128.347C108.192 126.816 107.894 125.3 107.315 123.885C106.735 122.47 105.885 121.183 104.812 120.1C103.74 119.016 102.466 118.156 101.065 117.569C99.6627 116.982 98.1598 116.679 96.6419 116.677H85.0934V128.347C85.0917 129.878 85.3891 131.395 85.9686 132.81C86.5481 134.226 87.3983 135.512 88.4707 136.596C89.5431 137.68 90.8167 138.54 92.2187 139.127C93.6207 139.714 95.1237 140.017 96.6419 140.019ZM96.6419 108.895H127.438C128.956 108.893 130.459 108.59 131.86 108.003C133.262 107.416 134.536 106.556 135.608 105.472C136.681 104.389 137.531 103.103 138.11 101.688C138.69 100.272 138.988 98.7561 138.986 97.2251C138.988 95.6938 138.69 94.1772 138.111 92.7619C137.532 91.3466 136.681 90.0603 135.609 88.9764C134.537 87.8926 133.263 87.0324 131.861 86.4451C130.459 85.8577 128.956 85.5546 127.438 85.5532H96.6419C95.1237 85.5546 93.6207 85.8577 92.2187 86.4451C90.8167 87.0324 89.5431 87.8926 88.4707 88.9764C87.3983 90.0603 86.5481 91.3466 85.9686 92.7619C85.3891 94.1772 85.0917 95.6938 85.0934 97.2251C85.092 98.7561 85.3896 100.272 85.9692 101.688C86.5488 103.103 87.3991 104.389 88.4714 105.472C89.5438 106.556 90.8173 107.416 92.2192 108.003C93.6211 108.59 95.1239 108.893 96.6419 108.895Z" fill="#ECB22E"/>
<path fill-rule="evenodd" clip-rule="evenodd" d="M23.5017 97.2251C23.5003 98.7561 23.7979 100.272 24.3775 101.688C24.9571 103.103 25.8074 104.389 26.8797 105.472C27.9521 106.556 29.2256 107.416 30.6275 108.003C32.0294 108.59 33.5322 108.893 35.0502 108.895C36.5681 108.893 38.071 108.59 39.4729 108.003C40.8747 107.416 42.1482 106.556 43.2206 105.472C44.293 104.389 45.1432 103.103 45.7228 101.688C46.3024 100.272 46.6 98.7561 46.5986 97.2251V85.5532H35.0502C33.5318 85.5546 32.0286 85.8578 30.6265 86.4453C29.2243 87.0328 27.9506 87.8931 26.8782 88.9772C25.8058 90.0613 24.9556 91.3479 24.3763 92.7634C23.7969 94.179 23.4997 95.6936 23.5017 97.2251ZM54.2976 97.2251V128.347C54.2959 129.878 54.5933 131.395 55.1727 132.81C55.7522 134.226 56.6024 135.512 57.6748 136.596C58.7472 137.68 60.0208 138.54 61.4228 139.127C62.8249 139.714 64.3279 140.017 65.846 140.019C67.3642 140.017 68.8672 139.714 70.2692 139.127C71.6712 138.54 72.9448 137.68 74.0172 136.596C75.0896 135.512 75.9398 134.226 76.5193 132.81C77.0988 131.395 77.3962 129.878 77.3945 128.347V97.2272C77.3962 95.696 77.0988 94.1794 76.5193 92.7641C75.9398 91.3488 75.0896 90.0625 74.0172 88.9786C72.9448 87.8948 71.6712 87.0346 70.2692 86.4472C68.8672 85.8599 67.3642 85.5568 65.846 85.5554C64.3279 85.5568 62.8249 85.8599 61.4228 86.4472C60.0208 87.0346 58.7472 87.8948 57.6748 88.9786C56.6024 90.0625 55.7522 91.3488 55.1727 92.7641C54.5933 94.1794 54.2959 95.6938 54.2976 97.2251Z" fill="#E01E5A"/>
</g>
<defs>
<clipPath id="clip0_4861_1694">
<rect width="116" height="117" fill="white" transform="translate(23.5017 23.019)"/>
</clipPath>
</defs>
</svg>
