<svg width="163" height="164" viewBox="0 0 163 164" fill="none" xmlns="http://www.w3.org/2000/svg">
<g clip-path="url(#clip0_4122_13762)">
<path d="M46.6136 82.4006C48.0795 87.3847 50.1318 92.0756 52.4773 96.7665C53.3568 98.8188 54.8227 100.578 56.5818 102.044L57.7545 102.63C60.6864 103.217 62.1523 100.871 63.325 98.8188C64.7909 95.3006 65.9636 91.7825 66.8432 88.2643C67.1364 87.6779 67.1364 87.0915 67.4295 86.212C67.7227 85.0393 68.0159 83.5734 68.3091 82.4006L81.2091 48.0984C83.8477 44.5802 87.3659 41.6484 91.4705 39.5961C95.2818 37.5438 99.6795 36.3711 104.077 36.3711C110.527 36.3711 116.684 38.7166 121.668 42.5279C130.17 48.9779 135.155 61.5847 135.155 61.5847C135.741 63.3438 136.327 65.1029 136.327 66.862C136.327 68.6211 136.034 70.087 135.448 71.8461C134.568 73.312 133.689 74.7779 132.809 75.9506C131.636 77.1234 130.17 78.0029 128.705 78.5893C127.239 79.1756 125.48 79.4688 123.72 79.4688C121.961 79.4688 120.202 79.1756 118.443 78.2961C116.684 77.4166 115.218 76.2438 114.045 75.0711C114.045 75.0711 114.045 74.7779 113.752 74.7779C112.873 73.6052 112.286 72.4325 111.7 71.2597C111.114 69.7938 110.234 68.3279 109.355 66.862C108.768 66.2756 108.475 65.3961 107.889 64.8097C107.595 64.2234 107.009 63.3438 106.13 63.0506C104.957 62.1711 103.491 61.8779 102.318 62.4643L102.025 62.1711C100.559 63.3438 99.6795 64.8097 99.0932 66.5688C97.3341 70.9666 95.8682 75.3643 94.6954 80.0552L94.1091 82.6938L88.8318 99.9916L81.5023 116.41C78.8636 119.928 75.3455 122.567 71.2409 124.619C67.4295 126.378 63.0318 127.551 58.6341 127.551C40.4568 127.844 31.9545 111.426 31.9545 111.426C21.6932 94.4211 18.7614 72.1393 17.8818 64.8097C17.5886 63.9302 17.5886 63.0506 17.5886 62.1711C17.5886 59.8256 18.175 57.7734 19.3477 55.7211C20.5205 53.6688 21.9864 52.2029 24.0386 51.0302C26.0909 50.1506 28.4364 49.5643 30.7818 49.5643C34.5932 49.8575 38.1114 51.6166 40.4568 54.8416C41.9227 57.4802 42.8023 60.1188 42.8023 63.0506C43.3886 69.7938 44.8545 76.2438 46.6136 82.4006Z" fill="url(#paint0_linear_4122_13762)"/>
<path d="M46.6136 82.4006C48.0795 87.3847 50.1318 92.0756 52.4773 96.7665C53.3568 98.8188 54.8227 100.578 56.5818 102.044L57.7545 102.63C60.6864 103.217 62.1523 100.871 63.325 98.8188C64.7909 95.3006 65.9636 91.7825 66.8432 88.2643C67.1364 87.6779 67.1364 87.0915 67.4295 86.212C67.7227 85.0393 68.0159 83.5734 68.3091 82.4006L81.2091 48.0984C83.8477 44.5802 87.3659 41.6484 91.4705 39.5961C95.2818 37.5438 99.6795 36.3711 104.077 36.3711C110.527 36.3711 116.684 38.7166 121.668 42.5279C130.17 48.9779 135.155 61.5847 135.155 61.5847C135.741 63.3438 136.327 65.1029 136.327 66.862C136.327 68.6211 136.034 70.087 135.448 71.8461C134.568 73.312 133.689 74.7779 132.809 75.9506C131.636 77.1234 130.17 78.0029 128.705 78.5893C127.239 79.1756 125.48 79.4688 123.72 79.4688C121.961 79.4688 120.202 79.1756 118.443 78.2961C116.684 77.4166 115.218 76.2438 114.045 75.0711C114.045 75.0711 114.045 74.7779 113.752 74.7779C112.873 73.6052 112.286 72.4325 111.7 71.2597C111.114 69.7938 110.234 68.3279 109.355 66.862C108.768 66.2756 108.475 65.3961 107.889 64.8097C107.595 64.2234 107.009 63.3438 106.13 63.0506C104.957 62.1711 103.491 61.8779 102.318 62.4643L102.025 62.1711C100.559 63.3438 99.6795 64.8097 99.0932 66.5688C97.3341 70.9666 95.8682 75.3643 94.6954 80.0552L94.1091 82.6938L88.8318 99.9916L81.5023 116.41C78.8636 119.928 75.3455 122.567 71.2409 124.619C67.4295 126.378 63.0318 127.551 58.6341 127.551C40.4568 127.844 31.9545 111.426 31.9545 111.426C21.6932 94.4211 18.7614 72.1393 17.8818 64.8097C17.5886 63.9302 17.5886 63.0506 17.5886 62.1711C17.5886 59.8256 18.175 57.7734 19.3477 55.7211C20.5205 53.6688 21.9864 52.2029 24.0386 51.0302C26.0909 50.1506 28.4364 49.5643 30.7818 49.5643C34.5932 49.8575 38.1114 51.6166 40.4568 54.8416C41.9227 57.4802 42.8023 60.1188 42.8023 63.0506C43.3886 69.7938 44.8545 76.2438 46.6136 82.4006Z" fill="url(#paint1_radial_4122_13762)"/>
<path d="M46.6136 82.4006C48.0795 87.3847 50.1318 92.0756 52.4773 96.7665C53.3568 98.8188 54.8227 100.578 56.5818 102.044L57.7545 102.63C60.6864 103.217 62.1523 100.871 63.325 98.8188C64.7909 95.3006 65.9636 91.7825 66.8432 88.2643C67.1364 87.6779 67.1364 87.0915 67.4295 86.212C67.7227 85.0393 68.0159 83.5734 68.3091 82.4006L81.2091 48.0984C83.8477 44.5802 87.3659 41.6484 91.4705 39.5961C95.2818 37.5438 99.6795 36.3711 104.077 36.3711C110.527 36.3711 116.684 38.7166 121.668 42.5279C130.17 48.9779 135.155 61.5847 135.155 61.5847C135.741 63.3438 136.327 65.1029 136.327 66.862C136.327 68.6211 136.034 70.087 135.448 71.8461C134.568 73.312 133.689 74.7779 132.809 75.9506C131.636 77.1234 130.17 78.0029 128.705 78.5893C127.239 79.1756 125.48 79.4688 123.72 79.4688C121.961 79.4688 120.202 79.1756 118.443 78.2961C116.684 77.4166 115.218 76.2438 114.045 75.0711C114.045 75.0711 114.045 74.7779 113.752 74.7779C112.873 73.6052 112.286 72.4325 111.7 71.2597C111.114 69.7938 110.234 68.3279 109.355 66.862C108.768 66.2756 108.475 65.3961 107.889 64.8097C107.595 64.2234 107.009 63.3438 106.13 63.0506C104.957 62.1711 103.491 61.8779 102.318 62.4643L102.025 62.1711C100.559 63.3438 99.6795 64.8097 99.0932 66.5688C97.3341 70.9666 95.8682 75.3643 94.6954 80.0552L94.1091 82.6938L88.8318 99.9916L81.5023 116.41C78.8636 119.928 75.3455 122.567 71.2409 124.619C67.4295 126.378 63.0318 127.551 58.6341 127.551C40.4568 127.844 31.9545 111.426 31.9545 111.426C21.6932 94.4211 18.7614 72.1393 17.8818 64.8097C17.5886 63.9302 17.5886 63.0506 17.5886 62.1711C17.5886 59.8256 18.175 57.7734 19.3477 55.7211C20.5205 53.6688 21.9864 52.2029 24.0386 51.0302C26.0909 50.1506 28.4364 49.5643 30.7818 49.5643C34.5932 49.8575 38.1114 51.6166 40.4568 54.8416C41.9227 57.4802 42.8023 60.1188 42.8023 63.0506C43.3886 69.7938 44.8545 76.2438 46.6136 82.4006Z" fill="url(#paint2_radial_4122_13762)"/>
<path d="M46.6136 82.4006C48.0795 87.3847 50.1318 92.0756 52.4773 96.7665C53.3568 98.8188 54.8227 100.578 56.5818 102.044L57.7545 102.63C60.6864 103.217 62.1523 100.871 63.325 98.8188C64.7909 95.3006 65.9636 91.7825 66.8432 88.2643C67.1364 87.6779 67.1364 87.0915 67.4295 86.212C67.7227 85.0393 68.0159 83.5734 68.3091 82.4006L81.2091 48.0984C83.8477 44.5802 87.3659 41.6484 91.4705 39.5961C95.2818 37.5438 99.6795 36.3711 104.077 36.3711C110.527 36.3711 116.684 38.7166 121.668 42.5279C130.17 48.9779 135.155 61.5847 135.155 61.5847C135.741 63.3438 136.327 65.1029 136.327 66.862C136.327 68.6211 136.034 70.087 135.448 71.8461C134.568 73.312 133.689 74.7779 132.809 75.9506C131.636 77.1234 130.17 78.0029 128.705 78.5893C127.239 79.1756 125.48 79.4688 123.72 79.4688C121.961 79.4688 120.202 79.1756 118.443 78.2961C116.684 77.4166 115.218 76.2438 114.045 75.0711C114.045 75.0711 114.045 74.7779 113.752 74.7779C112.873 73.6052 112.286 72.4325 111.7 71.2597C111.114 69.7938 110.234 68.3279 109.355 66.862C108.768 66.2756 108.475 65.3961 107.889 64.8097C107.595 64.2234 107.009 63.3438 106.13 63.0506C104.957 62.1711 103.491 61.8779 102.318 62.4643L102.025 62.1711C100.559 63.3438 99.6795 64.8097 99.0932 66.5688C97.3341 70.9666 95.8682 75.3643 94.6954 80.0552L94.1091 82.6938L88.8318 99.9916L81.5023 116.41C78.8636 119.928 75.3455 122.567 71.2409 124.619C67.4295 126.378 63.0318 127.551 58.6341 127.551C40.4568 127.844 31.9545 111.426 31.9545 111.426C21.6932 94.4211 18.7614 72.1393 17.8818 64.8097C17.5886 63.9302 17.5886 63.0506 17.5886 62.1711C17.5886 59.8256 18.175 57.7734 19.3477 55.7211C20.5205 53.6688 21.9864 52.2029 24.0386 51.0302C26.0909 50.1506 28.4364 49.5643 30.7818 49.5643C34.5932 49.8575 38.1114 51.6166 40.4568 54.8416C41.9227 57.4802 42.8023 60.1188 42.8023 63.0506C43.3886 69.7938 44.8545 76.2438 46.6136 82.4006Z" fill="url(#paint3_radial_4122_13762)"/>
<path d="M46.6136 82.4006C48.0795 87.3847 50.1318 92.0756 52.4773 96.7665C53.3568 98.8188 54.8227 100.578 56.5818 102.044L57.7545 102.63C60.6864 103.217 62.1523 100.871 63.325 98.8188C64.7909 95.3006 65.9636 91.7825 66.8432 88.2643C67.1364 87.6779 67.1364 87.0915 67.4295 86.212C67.7227 85.0393 68.0159 83.5734 68.3091 82.4006L81.2091 48.0984C83.8477 44.5802 87.3659 41.6484 91.4705 39.5961C95.2818 37.5438 99.6795 36.3711 104.077 36.3711C110.527 36.3711 116.684 38.7166 121.668 42.5279C130.17 48.9779 135.155 61.5847 135.155 61.5847C135.741 63.3438 136.327 65.1029 136.327 66.862C136.327 68.6211 136.034 70.087 135.448 71.8461C134.568 73.312 133.689 74.7779 132.809 75.9506C131.636 77.1234 130.17 78.0029 128.705 78.5893C127.239 79.1756 125.48 79.4688 123.72 79.4688C121.961 79.4688 120.202 79.1756 118.443 78.2961C116.684 77.4166 115.218 76.2438 114.045 75.0711C114.045 75.0711 114.045 74.7779 113.752 74.7779C112.873 73.6052 112.286 72.4325 111.7 71.2597C111.114 69.7938 110.234 68.3279 109.355 66.862C108.768 66.2756 108.475 65.3961 107.889 64.8097C107.595 64.2234 107.009 63.3438 106.13 63.0506C104.957 62.1711 103.491 61.8779 102.318 62.4643L102.025 62.1711C100.559 63.3438 99.6795 64.8097 99.0932 66.5688C97.3341 70.9666 95.8682 75.3643 94.6954 80.0552L94.1091 82.6938L88.8318 99.9916L81.5023 116.41C78.8636 119.928 75.3455 122.567 71.2409 124.619C67.4295 126.378 63.0318 127.551 58.6341 127.551C40.4568 127.844 31.9545 111.426 31.9545 111.426C21.6932 94.4211 18.7614 72.1393 17.8818 64.8097C17.5886 63.9302 17.5886 63.0506 17.5886 62.1711C17.5886 59.8256 18.175 57.7734 19.3477 55.7211C20.5205 53.6688 21.9864 52.2029 24.0386 51.0302C26.0909 50.1506 28.4364 49.5643 30.7818 49.5643C34.5932 49.8575 38.1114 51.6166 40.4568 54.8416C41.9227 57.4802 42.8023 60.1188 42.8023 63.0506C43.3886 69.7938 44.8545 76.2438 46.6136 82.4006Z" fill="url(#paint4_radial_4122_13762)"/>
<path d="M46.6136 82.4006C48.0795 87.3847 50.1318 92.0756 52.4773 96.7665C53.3568 98.8188 54.8227 100.578 56.5818 102.044L57.7545 102.63C60.6864 103.217 62.1523 100.871 63.325 98.8188C64.7909 95.3006 65.9636 91.7825 66.8432 88.2643C67.1364 87.6779 67.1364 87.0915 67.4295 86.212C67.7227 85.0393 68.0159 83.5734 68.3091 82.4006L81.2091 48.0984C83.8477 44.5802 87.3659 41.6484 91.4705 39.5961C95.2818 37.5438 99.6795 36.3711 104.077 36.3711C110.527 36.3711 116.684 38.7166 121.668 42.5279C130.17 48.9779 135.155 61.5847 135.155 61.5847C135.741 63.3438 136.327 65.1029 136.327 66.862C136.327 68.6211 136.034 70.087 135.448 71.8461C134.568 73.312 133.689 74.7779 132.809 75.9506C131.636 77.1234 130.17 78.0029 128.705 78.5893C127.239 79.1756 125.48 79.4688 123.72 79.4688C121.961 79.4688 120.202 79.1756 118.443 78.2961C116.684 77.4166 115.218 76.2438 114.045 75.0711C114.045 75.0711 114.045 74.7779 113.752 74.7779C112.873 73.6052 112.286 72.4325 111.7 71.2597C111.114 69.7938 110.234 68.3279 109.355 66.862C108.768 66.2756 108.475 65.3961 107.889 64.8097C107.595 64.2234 107.009 63.3438 106.13 63.0506C104.957 62.1711 103.491 61.8779 102.318 62.4643L102.025 62.1711C100.559 63.3438 99.6795 64.8097 99.0932 66.5688C97.3341 70.9666 95.8682 75.3643 94.6954 80.0552L94.1091 82.6938L88.8318 99.9916L81.5023 116.41C78.8636 119.928 75.3455 122.567 71.2409 124.619C67.4295 126.378 63.0318 127.551 58.6341 127.551C40.4568 127.844 31.9545 111.426 31.9545 111.426C21.6932 94.4211 18.7614 72.1393 17.8818 64.8097C17.5886 63.9302 17.5886 63.0506 17.5886 62.1711C17.5886 59.8256 18.175 57.7734 19.3477 55.7211C20.5205 53.6688 21.9864 52.2029 24.0386 51.0302C26.0909 50.1506 28.4364 49.5643 30.7818 49.5643C34.5932 49.8575 38.1114 51.6166 40.4568 54.8416C41.9227 57.4802 42.8023 60.1188 42.8023 63.0506C43.3886 69.7938 44.8545 76.2438 46.6136 82.4006Z" fill="url(#paint5_radial_4122_13762)"/>
<path d="M46.6136 82.4006C48.0795 87.3847 50.1318 92.0756 52.4773 96.7665C53.3568 98.8188 54.8227 100.578 56.5818 102.044L57.7545 102.63C60.6864 103.217 62.1523 100.871 63.325 98.8188C64.7909 95.3006 65.9636 91.7825 66.8432 88.2643C67.1364 87.6779 67.1364 87.0915 67.4295 86.212C67.7227 85.0393 68.0159 83.5734 68.3091 82.4006L81.2091 48.0984C83.8477 44.5802 87.3659 41.6484 91.4705 39.5961C95.2818 37.5438 99.6795 36.3711 104.077 36.3711C110.527 36.3711 116.684 38.7166 121.668 42.5279C130.17 48.9779 135.155 61.5847 135.155 61.5847C135.741 63.3438 136.327 65.1029 136.327 66.862C136.327 68.6211 136.034 70.087 135.448 71.8461C134.568 73.312 133.689 74.7779 132.809 75.9506C131.636 77.1234 130.17 78.0029 128.705 78.5893C127.239 79.1756 125.48 79.4688 123.72 79.4688C121.961 79.4688 120.202 79.1756 118.443 78.2961C116.684 77.4166 115.218 76.2438 114.045 75.0711C114.045 75.0711 114.045 74.7779 113.752 74.7779C112.873 73.6052 112.286 72.4325 111.7 71.2597C111.114 69.7938 110.234 68.3279 109.355 66.862C108.768 66.2756 108.475 65.3961 107.889 64.8097C107.595 64.2234 107.009 63.3438 106.13 63.0506C104.957 62.1711 103.491 61.8779 102.318 62.4643L102.025 62.1711C100.559 63.3438 99.6795 64.8097 99.0932 66.5688C97.3341 70.9666 95.8682 75.3643 94.6954 80.0552L94.1091 82.6938L88.8318 99.9916L81.5023 116.41C78.8636 119.928 75.3455 122.567 71.2409 124.619C67.4295 126.378 63.0318 127.551 58.6341 127.551C40.4568 127.844 31.9545 111.426 31.9545 111.426C21.6932 94.4211 18.7614 72.1393 17.8818 64.8097C17.5886 63.9302 17.5886 63.0506 17.5886 62.1711C17.5886 59.8256 18.175 57.7734 19.3477 55.7211C20.5205 53.6688 21.9864 52.2029 24.0386 51.0302C26.0909 50.1506 28.4364 49.5643 30.7818 49.5643C34.5932 49.8575 38.1114 51.6166 40.4568 54.8416C41.9227 57.4802 42.8023 60.1188 42.8023 63.0506C43.3886 69.7938 44.8545 76.2438 46.6136 82.4006Z" fill="url(#paint6_radial_4122_13762)"/>
<path d="M46.6136 82.4006C48.0795 87.3847 50.1318 92.0756 52.4773 96.7665C53.3568 98.8188 54.8227 100.578 56.5818 102.044L57.7545 102.63C60.6864 103.217 62.1523 100.871 63.325 98.8188C64.7909 95.3006 65.9636 91.7825 66.8432 88.2643C67.1364 87.6779 67.1364 87.0915 67.4295 86.212C67.7227 85.0393 68.0159 83.5734 68.3091 82.4006L81.2091 48.0984C83.8477 44.5802 87.3659 41.6484 91.4705 39.5961C95.2818 37.5438 99.6795 36.3711 104.077 36.3711C110.527 36.3711 116.684 38.7166 121.668 42.5279C130.17 48.9779 135.155 61.5847 135.155 61.5847C135.741 63.3438 136.327 65.1029 136.327 66.862C136.327 68.6211 136.034 70.087 135.448 71.8461C134.568 73.312 133.689 74.7779 132.809 75.9506C131.636 77.1234 130.17 78.0029 128.705 78.5893C127.239 79.1756 125.48 79.4688 123.72 79.4688C121.961 79.4688 120.202 79.1756 118.443 78.2961C116.684 77.4166 115.218 76.2438 114.045 75.0711C114.045 75.0711 114.045 74.7779 113.752 74.7779C112.873 73.6052 112.286 72.4325 111.7 71.2597C111.114 69.7938 110.234 68.3279 109.355 66.862C108.768 66.2756 108.475 65.3961 107.889 64.8097C107.595 64.2234 107.009 63.3438 106.13 63.0506C104.957 62.1711 103.491 61.8779 102.318 62.4643L102.025 62.1711C100.559 63.3438 99.6795 64.8097 99.0932 66.5688C97.3341 70.9666 95.8682 75.3643 94.6954 80.0552L94.1091 82.6938L88.8318 99.9916L81.5023 116.41C78.8636 119.928 75.3455 122.567 71.2409 124.619C67.4295 126.378 63.0318 127.551 58.6341 127.551C40.4568 127.844 31.9545 111.426 31.9545 111.426C21.6932 94.4211 18.7614 72.1393 17.8818 64.8097C17.5886 63.9302 17.5886 63.0506 17.5886 62.1711C17.5886 59.8256 18.175 57.7734 19.3477 55.7211C20.5205 53.6688 21.9864 52.2029 24.0386 51.0302C26.0909 50.1506 28.4364 49.5643 30.7818 49.5643C34.5932 49.8575 38.1114 51.6166 40.4568 54.8416C41.9227 57.4802 42.8023 60.1188 42.8023 63.0506C43.3886 69.7938 44.8545 76.2438 46.6136 82.4006Z" fill="url(#paint7_radial_4122_13762)"/>
<path d="M46.6136 82.4006C48.0795 87.3847 50.1318 92.0756 52.4773 96.7665C53.3568 98.8188 54.8227 100.578 56.5818 102.044L57.7545 102.63C60.6864 103.217 62.1523 100.871 63.325 98.8188C64.7909 95.3006 65.9636 91.7825 66.8432 88.2643C67.1364 87.6779 67.1364 87.0915 67.4295 86.212C67.7227 85.0393 68.0159 83.5734 68.3091 82.4006L81.2091 48.0984C83.8477 44.5802 87.3659 41.6484 91.4705 39.5961C95.2818 37.5438 99.6795 36.3711 104.077 36.3711C110.527 36.3711 116.684 38.7166 121.668 42.5279C130.17 48.9779 135.155 61.5847 135.155 61.5847C135.741 63.3438 136.327 65.1029 136.327 66.862C136.327 68.6211 136.034 70.087 135.448 71.8461C134.568 73.312 133.689 74.7779 132.809 75.9506C131.636 77.1234 130.17 78.0029 128.705 78.5893C127.239 79.1756 125.48 79.4688 123.72 79.4688C121.961 79.4688 120.202 79.1756 118.443 78.2961C116.684 77.4166 115.218 76.2438 114.045 75.0711C114.045 75.0711 114.045 74.7779 113.752 74.7779C112.873 73.6052 112.286 72.4325 111.7 71.2597C111.114 69.7938 110.234 68.3279 109.355 66.862C108.768 66.2756 108.475 65.3961 107.889 64.8097C107.595 64.2234 107.009 63.3438 106.13 63.0506C104.957 62.1711 103.491 61.8779 102.318 62.4643L102.025 62.1711C100.559 63.3438 99.6795 64.8097 99.0932 66.5688C97.3341 70.9666 95.8682 75.3643 94.6954 80.0552L94.1091 82.6938L88.8318 99.9916L81.5023 116.41C78.8636 119.928 75.3455 122.567 71.2409 124.619C67.4295 126.378 63.0318 127.551 58.6341 127.551C40.4568 127.844 31.9545 111.426 31.9545 111.426C21.6932 94.4211 18.7614 72.1393 17.8818 64.8097C17.5886 63.9302 17.5886 63.0506 17.5886 62.1711C17.5886 59.8256 18.175 57.7734 19.3477 55.7211C20.5205 53.6688 21.9864 52.2029 24.0386 51.0302C26.0909 50.1506 28.4364 49.5643 30.7818 49.5643C34.5932 49.8575 38.1114 51.6166 40.4568 54.8416C41.9227 57.4802 42.8023 60.1188 42.8023 63.0506C43.3886 69.7938 44.8545 76.2438 46.6136 82.4006Z" fill="url(#paint8_radial_4122_13762)"/>
<path d="M46.6136 82.4006C48.0795 87.3847 50.1318 92.0756 52.4773 96.7665C53.3568 98.8188 54.8227 100.578 56.5818 102.044L57.7545 102.63C60.6864 103.217 62.1523 100.871 63.325 98.8188C64.7909 95.3006 65.9636 91.7825 66.8432 88.2643C67.1364 87.6779 67.1364 87.0915 67.4295 86.212C67.7227 85.0393 68.0159 83.5734 68.3091 82.4006L81.2091 48.0984C83.8477 44.5802 87.3659 41.6484 91.4705 39.5961C95.2818 37.5438 99.6795 36.3711 104.077 36.3711C110.527 36.3711 116.684 38.7166 121.668 42.5279C130.17 48.9779 135.155 61.5847 135.155 61.5847C135.741 63.3438 136.327 65.1029 136.327 66.862C136.327 68.6211 136.034 70.087 135.448 71.8461C134.568 73.312 133.689 74.7779 132.809 75.9506C131.636 77.1234 130.17 78.0029 128.705 78.5893C127.239 79.1756 125.48 79.4688 123.72 79.4688C121.961 79.4688 120.202 79.1756 118.443 78.2961C116.684 77.4166 115.218 76.2438 114.045 75.0711C114.045 75.0711 114.045 74.7779 113.752 74.7779C112.873 73.6052 112.286 72.4325 111.7 71.2597C111.114 69.7938 110.234 68.3279 109.355 66.862C108.768 66.2756 108.475 65.3961 107.889 64.8097C107.595 64.2234 107.009 63.3438 106.13 63.0506C104.957 62.1711 103.491 61.8779 102.318 62.4643L102.025 62.1711C100.559 63.3438 99.6795 64.8097 99.0932 66.5688C97.3341 70.9666 95.8682 75.3643 94.6954 80.0552L94.1091 82.6938L88.8318 99.9916L81.5023 116.41C78.8636 119.928 75.3455 122.567 71.2409 124.619C67.4295 126.378 63.0318 127.551 58.6341 127.551C40.4568 127.844 31.9545 111.426 31.9545 111.426C21.6932 94.4211 18.7614 72.1393 17.8818 64.8097C17.5886 63.9302 17.5886 63.0506 17.5886 62.1711C17.5886 59.8256 18.175 57.7734 19.3477 55.7211C20.5205 53.6688 21.9864 52.2029 24.0386 51.0302C26.0909 50.1506 28.4364 49.5643 30.7818 49.5643C34.5932 49.8575 38.1114 51.6166 40.4568 54.8416C41.9227 57.4802 42.8023 60.1188 42.8023 63.0506C43.3886 69.7938 44.8545 76.2438 46.6136 82.4006Z" fill="url(#paint9_radial_4122_13762)"/>
<path d="M46.6136 82.4006C48.0795 87.3847 50.1318 92.0756 52.4773 96.7665C53.3568 98.8188 54.8227 100.578 56.5818 102.044L57.7545 102.63C60.6864 103.217 62.1523 100.871 63.325 98.8188C64.7909 95.3006 65.9636 91.7825 66.8432 88.2643C67.1364 87.6779 67.1364 87.0915 67.4295 86.212C67.7227 85.0393 68.0159 83.5734 68.3091 82.4006L81.2091 48.0984C83.8477 44.5802 87.3659 41.6484 91.4705 39.5961C95.2818 37.5438 99.6795 36.3711 104.077 36.3711C110.527 36.3711 116.684 38.7166 121.668 42.5279C130.17 48.9779 135.155 61.5847 135.155 61.5847C135.741 63.3438 136.327 65.1029 136.327 66.862C136.327 68.6211 136.034 70.087 135.448 71.8461C134.568 73.312 133.689 74.7779 132.809 75.9506C131.636 77.1234 130.17 78.0029 128.705 78.5893C127.239 79.1756 125.48 79.4688 123.72 79.4688C121.961 79.4688 120.202 79.1756 118.443 78.2961C116.684 77.4166 115.218 76.2438 114.045 75.0711C114.045 75.0711 114.045 74.7779 113.752 74.7779C112.873 73.6052 112.286 72.4325 111.7 71.2597C111.114 69.7938 110.234 68.3279 109.355 66.862C108.768 66.2756 108.475 65.3961 107.889 64.8097C107.595 64.2234 107.009 63.3438 106.13 63.0506C104.957 62.1711 103.491 61.8779 102.318 62.4643L102.025 62.1711C100.559 63.3438 99.6795 64.8097 99.0932 66.5688C97.3341 70.9666 95.8682 75.3643 94.6954 80.0552L94.1091 82.6938L88.8318 99.9916L81.5023 116.41C78.8636 119.928 75.3455 122.567 71.2409 124.619C67.4295 126.378 63.0318 127.551 58.6341 127.551C40.4568 127.844 31.9545 111.426 31.9545 111.426C21.6932 94.4211 18.7614 72.1393 17.8818 64.8097C17.5886 63.9302 17.5886 63.0506 17.5886 62.1711C17.5886 59.8256 18.175 57.7734 19.3477 55.7211C20.5205 53.6688 21.9864 52.2029 24.0386 51.0302C26.0909 50.1506 28.4364 49.5643 30.7818 49.5643C34.5932 49.8575 38.1114 51.6166 40.4568 54.8416C41.9227 57.4802 42.8023 60.1188 42.8023 63.0506C43.3886 69.7938 44.8545 76.2438 46.6136 82.4006Z" fill="url(#paint10_radial_4122_13762)"/>
<path d="M46.6136 82.4006C48.0795 87.3847 50.1318 92.0756 52.4773 96.7665C53.3568 98.8188 54.8227 100.578 56.5818 102.044L57.7545 102.63C60.6864 103.217 62.1523 100.871 63.325 98.8188C64.7909 95.3006 65.9636 91.7825 66.8432 88.2643C67.1364 87.6779 67.1364 87.0915 67.4295 86.212C67.7227 85.0393 68.0159 83.5734 68.3091 82.4006L81.2091 48.0984C83.8477 44.5802 87.3659 41.6484 91.4705 39.5961C95.2818 37.5438 99.6795 36.3711 104.077 36.3711C110.527 36.3711 116.684 38.7166 121.668 42.5279C130.17 48.9779 135.155 61.5847 135.155 61.5847C135.741 63.3438 136.327 65.1029 136.327 66.862C136.327 68.6211 136.034 70.087 135.448 71.8461C134.568 73.312 133.689 74.7779 132.809 75.9506C131.636 77.1234 130.17 78.0029 128.705 78.5893C127.239 79.1756 125.48 79.4688 123.72 79.4688C121.961 79.4688 120.202 79.1756 118.443 78.2961C116.684 77.4166 115.218 76.2438 114.045 75.0711C114.045 75.0711 114.045 74.7779 113.752 74.7779C112.873 73.6052 112.286 72.4325 111.7 71.2597C111.114 69.7938 110.234 68.3279 109.355 66.862C108.768 66.2756 108.475 65.3961 107.889 64.8097C107.595 64.2234 107.009 63.3438 106.13 63.0506C104.957 62.1711 103.491 61.8779 102.318 62.4643L102.025 62.1711C100.559 63.3438 99.6795 64.8097 99.0932 66.5688C97.3341 70.9666 95.8682 75.3643 94.6954 80.0552L94.1091 82.6938L88.8318 99.9916L81.5023 116.41C78.8636 119.928 75.3455 122.567 71.2409 124.619C67.4295 126.378 63.0318 127.551 58.6341 127.551C40.4568 127.844 31.9545 111.426 31.9545 111.426C21.6932 94.4211 18.7614 72.1393 17.8818 64.8097C17.5886 63.9302 17.5886 63.0506 17.5886 62.1711C17.5886 59.8256 18.175 57.7734 19.3477 55.7211C20.5205 53.6688 21.9864 52.2029 24.0386 51.0302C26.0909 50.1506 28.4364 49.5643 30.7818 49.5643C34.5932 49.8575 38.1114 51.6166 40.4568 54.8416C41.9227 57.4802 42.8023 60.1188 42.8023 63.0506C43.3886 69.7938 44.8545 76.2438 46.6136 82.4006Z" fill="url(#paint11_radial_4122_13762)"/>
<path d="M46.6136 82.4006C48.0795 87.3847 50.1318 92.0756 52.4773 96.7665C53.3568 98.8188 54.8227 100.578 56.5818 102.044L57.7545 102.63C60.6864 103.217 62.1523 100.871 63.325 98.8188C64.7909 95.3006 65.9636 91.7825 66.8432 88.2643C67.1364 87.6779 67.1364 87.0915 67.4295 86.212C67.7227 85.0393 68.0159 83.5734 68.3091 82.4006L81.2091 48.0984C83.8477 44.5802 87.3659 41.6484 91.4705 39.5961C95.2818 37.5438 99.6795 36.3711 104.077 36.3711C110.527 36.3711 116.684 38.7166 121.668 42.5279C130.17 48.9779 135.155 61.5847 135.155 61.5847C135.741 63.3438 136.327 65.1029 136.327 66.862C136.327 68.6211 136.034 70.087 135.448 71.8461C134.568 73.312 133.689 74.7779 132.809 75.9506C131.636 77.1234 130.17 78.0029 128.705 78.5893C127.239 79.1756 125.48 79.4688 123.72 79.4688C121.961 79.4688 120.202 79.1756 118.443 78.2961C116.684 77.4166 115.218 76.2438 114.045 75.0711C114.045 75.0711 114.045 74.7779 113.752 74.7779C112.873 73.6052 112.286 72.4325 111.7 71.2597C111.114 69.7938 110.234 68.3279 109.355 66.862C108.768 66.2756 108.475 65.3961 107.889 64.8097C107.595 64.2234 107.009 63.3438 106.13 63.0506C104.957 62.1711 103.491 61.8779 102.318 62.4643L102.025 62.1711C100.559 63.3438 99.6795 64.8097 99.0932 66.5688C97.3341 70.9666 95.8682 75.3643 94.6954 80.0552L94.1091 82.6938L88.8318 99.9916L81.5023 116.41C78.8636 119.928 75.3455 122.567 71.2409 124.619C67.4295 126.378 63.0318 127.551 58.6341 127.551C40.4568 127.844 31.9545 111.426 31.9545 111.426C21.6932 94.4211 18.7614 72.1393 17.8818 64.8097C17.5886 63.9302 17.5886 63.0506 17.5886 62.1711C17.5886 59.8256 18.175 57.7734 19.3477 55.7211C20.5205 53.6688 21.9864 52.2029 24.0386 51.0302C26.0909 50.1506 28.4364 49.5643 30.7818 49.5643C34.5932 49.8575 38.1114 51.6166 40.4568 54.8416C41.9227 57.4802 42.8023 60.1188 42.8023 63.0506C43.3886 69.7938 44.8545 76.2438 46.6136 82.4006Z" fill="url(#paint12_radial_4122_13762)"/>
<path d="M46.6136 82.4006C48.0795 87.3847 50.1318 92.0756 52.4773 96.7665C53.3568 98.8188 54.8227 100.578 56.5818 102.044L57.7545 102.63C60.6864 103.217 62.1523 100.871 63.325 98.8188C64.7909 95.3006 65.9636 91.7825 66.8432 88.2643C67.1364 87.6779 67.1364 87.0915 67.4295 86.212C67.7227 85.0393 68.0159 83.5734 68.3091 82.4006L81.2091 48.0984C83.8477 44.5802 87.3659 41.6484 91.4705 39.5961C95.2818 37.5438 99.6795 36.3711 104.077 36.3711C110.527 36.3711 116.684 38.7166 121.668 42.5279C130.17 48.9779 135.155 61.5847 135.155 61.5847C135.741 63.3438 136.327 65.1029 136.327 66.862C136.327 68.6211 136.034 70.087 135.448 71.8461C134.568 73.312 133.689 74.7779 132.809 75.9506C131.636 77.1234 130.17 78.0029 128.705 78.5893C127.239 79.1756 125.48 79.4688 123.72 79.4688C121.961 79.4688 120.202 79.1756 118.443 78.2961C116.684 77.4166 115.218 76.2438 114.045 75.0711C114.045 75.0711 114.045 74.7779 113.752 74.7779C112.873 73.6052 112.286 72.4325 111.7 71.2597C111.114 69.7938 110.234 68.3279 109.355 66.862C108.768 66.2756 108.475 65.3961 107.889 64.8097C107.595 64.2234 107.009 63.3438 106.13 63.0506C104.957 62.1711 103.491 61.8779 102.318 62.4643L102.025 62.1711C100.559 63.3438 99.6795 64.8097 99.0932 66.5688C97.3341 70.9666 95.8682 75.3643 94.6954 80.0552L94.1091 82.6938L88.8318 99.9916L81.5023 116.41C78.8636 119.928 75.3455 122.567 71.2409 124.619C67.4295 126.378 63.0318 127.551 58.6341 127.551C40.4568 127.844 31.9545 111.426 31.9545 111.426C21.6932 94.4211 18.7614 72.1393 17.8818 64.8097C17.5886 63.9302 17.5886 63.0506 17.5886 62.1711C17.5886 59.8256 18.175 57.7734 19.3477 55.7211C20.5205 53.6688 21.9864 52.2029 24.0386 51.0302C26.0909 50.1506 28.4364 49.5643 30.7818 49.5643C34.5932 49.8575 38.1114 51.6166 40.4568 54.8416C41.9227 57.4802 42.8023 60.1188 42.8023 63.0506C43.3886 69.7938 44.8545 76.2438 46.6136 82.4006Z" fill="url(#paint13_radial_4122_13762)"/>
<path d="M46.6136 82.4006C48.0795 87.3847 50.1318 92.0756 52.4773 96.7665C53.3568 98.8188 54.8227 100.578 56.5818 102.044L57.7545 102.63C60.6864 103.217 62.1523 100.871 63.325 98.8188C64.7909 95.3006 65.9636 91.7825 66.8432 88.2643C67.1364 87.6779 67.1364 87.0915 67.4295 86.212C67.7227 85.0393 68.0159 83.5734 68.3091 82.4006L81.2091 48.0984C83.8477 44.5802 87.3659 41.6484 91.4705 39.5961C95.2818 37.5438 99.6795 36.3711 104.077 36.3711C110.527 36.3711 116.684 38.7166 121.668 42.5279C130.17 48.9779 135.155 61.5847 135.155 61.5847C135.741 63.3438 136.327 65.1029 136.327 66.862C136.327 68.6211 136.034 70.087 135.448 71.8461C134.568 73.312 133.689 74.7779 132.809 75.9506C131.636 77.1234 130.17 78.0029 128.705 78.5893C127.239 79.1756 125.48 79.4688 123.72 79.4688C121.961 79.4688 120.202 79.1756 118.443 78.2961C116.684 77.4166 115.218 76.2438 114.045 75.0711C114.045 75.0711 114.045 74.7779 113.752 74.7779C112.873 73.6052 112.286 72.4325 111.7 71.2597C111.114 69.7938 110.234 68.3279 109.355 66.862C108.768 66.2756 108.475 65.3961 107.889 64.8097C107.595 64.2234 107.009 63.3438 106.13 63.0506C104.957 62.1711 103.491 61.8779 102.318 62.4643L102.025 62.1711C100.559 63.3438 99.6795 64.8097 99.0932 66.5688C97.3341 70.9666 95.8682 75.3643 94.6954 80.0552L94.1091 82.6938L88.8318 99.9916L81.5023 116.41C78.8636 119.928 75.3455 122.567 71.2409 124.619C67.4295 126.378 63.0318 127.551 58.6341 127.551C40.4568 127.844 31.9545 111.426 31.9545 111.426C21.6932 94.4211 18.7614 72.1393 17.8818 64.8097C17.5886 63.9302 17.5886 63.0506 17.5886 62.1711C17.5886 59.8256 18.175 57.7734 19.3477 55.7211C20.5205 53.6688 21.9864 52.2029 24.0386 51.0302C26.0909 50.1506 28.4364 49.5643 30.7818 49.5643C34.5932 49.8575 38.1114 51.6166 40.4568 54.8416C41.9227 57.4802 42.8023 60.1188 42.8023 63.0506C43.3886 69.7938 44.8545 76.2438 46.6136 82.4006Z" fill="url(#paint14_radial_4122_13762)"/>
<path d="M46.6136 82.4006C48.0795 87.3847 50.1318 92.0756 52.4773 96.7665C53.3568 98.8188 54.8227 100.578 56.5818 102.044L57.7545 102.63C60.6864 103.217 62.1523 100.871 63.325 98.8188C64.7909 95.3006 65.9636 91.7825 66.8432 88.2643C67.1364 87.6779 67.1364 87.0915 67.4295 86.212C67.7227 85.0393 68.0159 83.5734 68.3091 82.4006L81.2091 48.0984C83.8477 44.5802 87.3659 41.6484 91.4705 39.5961C95.2818 37.5438 99.6795 36.3711 104.077 36.3711C110.527 36.3711 116.684 38.7166 121.668 42.5279C130.17 48.9779 135.155 61.5847 135.155 61.5847C135.741 63.3438 136.327 65.1029 136.327 66.862C136.327 68.6211 136.034 70.087 135.448 71.8461C134.568 73.312 133.689 74.7779 132.809 75.9506C131.636 77.1234 130.17 78.0029 128.705 78.5893C127.239 79.1756 125.48 79.4688 123.72 79.4688C121.961 79.4688 120.202 79.1756 118.443 78.2961C116.684 77.4166 115.218 76.2438 114.045 75.0711C114.045 75.0711 114.045 74.7779 113.752 74.7779C112.873 73.6052 112.286 72.4325 111.7 71.2597C111.114 69.7938 110.234 68.3279 109.355 66.862C108.768 66.2756 108.475 65.3961 107.889 64.8097C107.595 64.2234 107.009 63.3438 106.13 63.0506C104.957 62.1711 103.491 61.8779 102.318 62.4643L102.025 62.1711C100.559 63.3438 99.6795 64.8097 99.0932 66.5688C97.3341 70.9666 95.8682 75.3643 94.6954 80.0552L94.1091 82.6938L88.8318 99.9916L81.5023 116.41C78.8636 119.928 75.3455 122.567 71.2409 124.619C67.4295 126.378 63.0318 127.551 58.6341 127.551C40.4568 127.844 31.9545 111.426 31.9545 111.426C21.6932 94.4211 18.7614 72.1393 17.8818 64.8097C17.5886 63.9302 17.5886 63.0506 17.5886 62.1711C17.5886 59.8256 18.175 57.7734 19.3477 55.7211C20.5205 53.6688 21.9864 52.2029 24.0386 51.0302C26.0909 50.1506 28.4364 49.5643 30.7818 49.5643C34.5932 49.8575 38.1114 51.6166 40.4568 54.8416C41.9227 57.4802 42.8023 60.1188 42.8023 63.0506C43.3886 69.7938 44.8545 76.2438 46.6136 82.4006Z" fill="url(#paint15_radial_4122_13762)"/>
<path d="M46.6136 82.4006C48.0795 87.3847 50.1318 92.0756 52.4773 96.7665C53.3568 98.8188 54.8227 100.578 56.5818 102.044L57.7545 102.63C60.6864 103.217 62.1523 100.871 63.325 98.8188C64.7909 95.3006 65.9636 91.7825 66.8432 88.2643C67.1364 87.6779 67.1364 87.0915 67.4295 86.212C67.7227 85.0393 68.0159 83.5734 68.3091 82.4006L81.2091 48.0984C83.8477 44.5802 87.3659 41.6484 91.4705 39.5961C95.2818 37.5438 99.6795 36.3711 104.077 36.3711C110.527 36.3711 116.684 38.7166 121.668 42.5279C130.17 48.9779 135.155 61.5847 135.155 61.5847C135.741 63.3438 136.327 65.1029 136.327 66.862C136.327 68.6211 136.034 70.087 135.448 71.8461C134.568 73.312 133.689 74.7779 132.809 75.9506C131.636 77.1234 130.17 78.0029 128.705 78.5893C127.239 79.1756 125.48 79.4688 123.72 79.4688C121.961 79.4688 120.202 79.1756 118.443 78.2961C116.684 77.4166 115.218 76.2438 114.045 75.0711C114.045 75.0711 114.045 74.7779 113.752 74.7779C112.873 73.6052 112.286 72.4325 111.7 71.2597C111.114 69.7938 110.234 68.3279 109.355 66.862C108.768 66.2756 108.475 65.3961 107.889 64.8097C107.595 64.2234 107.009 63.3438 106.13 63.0506C104.957 62.1711 103.491 61.8779 102.318 62.4643L102.025 62.1711C100.559 63.3438 99.6795 64.8097 99.0932 66.5688C97.3341 70.9666 95.8682 75.3643 94.6954 80.0552L94.1091 82.6938L88.8318 99.9916L81.5023 116.41C78.8636 119.928 75.3455 122.567 71.2409 124.619C67.4295 126.378 63.0318 127.551 58.6341 127.551C40.4568 127.844 31.9545 111.426 31.9545 111.426C21.6932 94.4211 18.7614 72.1393 17.8818 64.8097C17.5886 63.9302 17.5886 63.0506 17.5886 62.1711C17.5886 59.8256 18.175 57.7734 19.3477 55.7211C20.5205 53.6688 21.9864 52.2029 24.0386 51.0302C26.0909 50.1506 28.4364 49.5643 30.7818 49.5643C34.5932 49.8575 38.1114 51.6166 40.4568 54.8416C41.9227 57.4802 42.8023 60.1188 42.8023 63.0506C43.3886 69.7938 44.8545 76.2438 46.6136 82.4006Z" fill="url(#paint16_linear_4122_13762)"/>
<path d="M46.6136 82.4006C48.0795 87.3847 50.1318 92.0756 52.4773 96.7665C53.3568 98.8188 54.8227 100.578 56.5818 102.044L57.7545 102.63C60.6864 103.217 62.1523 100.871 63.325 98.8188C64.7909 95.3006 65.9636 91.7825 66.8432 88.2643C67.1364 87.6779 67.1364 87.0915 67.4295 86.212C67.7227 85.0393 68.0159 83.5734 68.3091 82.4006L81.2091 48.0984C83.8477 44.5802 87.3659 41.6484 91.4705 39.5961C95.2818 37.5438 99.6795 36.3711 104.077 36.3711C110.527 36.3711 116.684 38.7166 121.668 42.5279C130.17 48.9779 135.155 61.5847 135.155 61.5847C135.741 63.3438 136.327 65.1029 136.327 66.862C136.327 68.6211 136.034 70.087 135.448 71.8461C134.568 73.312 133.689 74.7779 132.809 75.9506C131.636 77.1234 130.17 78.0029 128.705 78.5893C127.239 79.1756 125.48 79.4688 123.72 79.4688C121.961 79.4688 120.202 79.1756 118.443 78.2961C116.684 77.4166 115.218 76.2438 114.045 75.0711C114.045 75.0711 114.045 74.7779 113.752 74.7779C112.873 73.6052 112.286 72.4325 111.7 71.2597C111.114 69.7938 110.234 68.3279 109.355 66.862C108.768 66.2756 108.475 65.3961 107.889 64.8097C107.595 64.2234 107.009 63.3438 106.13 63.0506C104.957 62.1711 103.491 61.8779 102.318 62.4643L102.025 62.1711C100.559 63.3438 99.6795 64.8097 99.0932 66.5688C97.3341 70.9666 95.8682 75.3643 94.6954 80.0552L94.1091 82.6938L88.8318 99.9916L81.5023 116.41C78.8636 119.928 75.3455 122.567 71.2409 124.619C67.4295 126.378 63.0318 127.551 58.6341 127.551C40.4568 127.844 31.9545 111.426 31.9545 111.426C21.6932 94.4211 18.7614 72.1393 17.8818 64.8097C17.5886 63.9302 17.5886 63.0506 17.5886 62.1711C17.5886 59.8256 18.175 57.7734 19.3477 55.7211C20.5205 53.6688 21.9864 52.2029 24.0386 51.0302C26.0909 50.1506 28.4364 49.5643 30.7818 49.5643C34.5932 49.8575 38.1114 51.6166 40.4568 54.8416C41.9227 57.4802 42.8023 60.1188 42.8023 63.0506C43.3886 69.7938 44.8545 76.2438 46.6136 82.4006Z" fill="url(#paint17_linear_4122_13762)"/>
<path d="M46.6136 82.4006C48.0795 87.3847 50.1318 92.0756 52.4773 96.7665C53.3568 98.8188 54.8227 100.578 56.5818 102.044L57.7545 102.63C60.6864 103.217 62.1523 100.871 63.325 98.8188C64.7909 95.3006 65.9636 91.7825 66.8432 88.2643C67.1364 87.6779 67.1364 87.0915 67.4295 86.212C67.7227 85.0393 68.0159 83.5734 68.3091 82.4006L81.2091 48.0984C83.8477 44.5802 87.3659 41.6484 91.4705 39.5961C95.2818 37.5438 99.6795 36.3711 104.077 36.3711C110.527 36.3711 116.684 38.7166 121.668 42.5279C130.17 48.9779 135.155 61.5847 135.155 61.5847C135.741 63.3438 136.327 65.1029 136.327 66.862C136.327 68.6211 136.034 70.087 135.448 71.8461C134.568 73.312 133.689 74.7779 132.809 75.9506C131.636 77.1234 130.17 78.0029 128.705 78.5893C127.239 79.1756 125.48 79.4688 123.72 79.4688C121.961 79.4688 120.202 79.1756 118.443 78.2961C116.684 77.4166 115.218 76.2438 114.045 75.0711C114.045 75.0711 114.045 74.7779 113.752 74.7779C112.873 73.6052 112.286 72.4325 111.7 71.2597C111.114 69.7938 110.234 68.3279 109.355 66.862C108.768 66.2756 108.475 65.3961 107.889 64.8097C107.595 64.2234 107.009 63.3438 106.13 63.0506C104.957 62.1711 103.491 61.8779 102.318 62.4643L102.025 62.1711C100.559 63.3438 99.6795 64.8097 99.0932 66.5688C97.3341 70.9666 95.8682 75.3643 94.6954 80.0552L94.1091 82.6938L88.8318 99.9916L81.5023 116.41C78.8636 119.928 75.3455 122.567 71.2409 124.619C67.4295 126.378 63.0318 127.551 58.6341 127.551C40.4568 127.844 31.9545 111.426 31.9545 111.426C21.6932 94.4211 18.7614 72.1393 17.8818 64.8097C17.5886 63.9302 17.5886 63.0506 17.5886 62.1711C17.5886 59.8256 18.175 57.7734 19.3477 55.7211C20.5205 53.6688 21.9864 52.2029 24.0386 51.0302C26.0909 50.1506 28.4364 49.5643 30.7818 49.5643C34.5932 49.8575 38.1114 51.6166 40.4568 54.8416C41.9227 57.4802 42.8023 60.1188 42.8023 63.0506C43.3886 69.7938 44.8545 76.2438 46.6136 82.4006Z" fill="url(#paint18_linear_4122_13762)"/>
<path d="M46.6136 82.4006C48.0795 87.3847 50.1318 92.0756 52.4773 96.7665C53.3568 98.8188 54.8227 100.578 56.5818 102.044L57.7545 102.63C60.6864 103.217 62.1523 100.871 63.325 98.8188C64.7909 95.3006 65.9636 91.7825 66.8432 88.2643C67.1364 87.6779 67.1364 87.0915 67.4295 86.212C67.7227 85.0393 68.0159 83.5734 68.3091 82.4006L81.2091 48.0984C83.8477 44.5802 87.3659 41.6484 91.4705 39.5961C95.2818 37.5438 99.6795 36.3711 104.077 36.3711C110.527 36.3711 116.684 38.7166 121.668 42.5279C130.17 48.9779 135.155 61.5847 135.155 61.5847C135.741 63.3438 136.327 65.1029 136.327 66.862C136.327 68.6211 136.034 70.087 135.448 71.8461C134.568 73.312 133.689 74.7779 132.809 75.9506C131.636 77.1234 130.17 78.0029 128.705 78.5893C127.239 79.1756 125.48 79.4688 123.72 79.4688C121.961 79.4688 120.202 79.1756 118.443 78.2961C116.684 77.4166 115.218 76.2438 114.045 75.0711C114.045 75.0711 114.045 74.7779 113.752 74.7779C112.873 73.6052 112.286 72.4325 111.7 71.2597C111.114 69.7938 110.234 68.3279 109.355 66.862C108.768 66.2756 108.475 65.3961 107.889 64.8097C107.595 64.2234 107.009 63.3438 106.13 63.0506C104.957 62.1711 103.491 61.8779 102.318 62.4643L102.025 62.1711C100.559 63.3438 99.6795 64.8097 99.0932 66.5688C97.3341 70.9666 95.8682 75.3643 94.6954 80.0552L94.1091 82.6938L88.8318 99.9916L81.5023 116.41C78.8636 119.928 75.3455 122.567 71.2409 124.619C67.4295 126.378 63.0318 127.551 58.6341 127.551C40.4568 127.844 31.9545 111.426 31.9545 111.426C21.6932 94.4211 18.7614 72.1393 17.8818 64.8097C17.5886 63.9302 17.5886 63.0506 17.5886 62.1711C17.5886 59.8256 18.175 57.7734 19.3477 55.7211C20.5205 53.6688 21.9864 52.2029 24.0386 51.0302C26.0909 50.1506 28.4364 49.5643 30.7818 49.5643C34.5932 49.8575 38.1114 51.6166 40.4568 54.8416C41.9227 57.4802 42.8023 60.1188 42.8023 63.0506C43.3886 69.7938 44.8545 76.2438 46.6136 82.4006Z" fill="url(#paint19_linear_4122_13762)"/>
<path d="M72.9998 69.5006L81.2089 47.8052C83.8475 44.287 87.3657 41.3552 91.4702 39.3029C95.5748 37.5438 99.9725 36.3711 104.37 36.3711C110.82 36.3711 116.977 38.7166 121.961 42.5279C130.463 48.9779 135.448 61.5847 135.448 61.5847C136.034 63.3438 136.62 65.1029 136.62 66.862C136.62 68.6211 136.327 70.087 135.741 71.8461C134.861 73.312 133.982 74.7779 133.102 75.9506C131.929 77.1234 130.463 78.0029 128.998 78.5893C127.532 79.1756 125.772 79.4688 124.013 79.4688C122.254 79.4688 120.495 79.1756 118.736 78.2961C116.977 77.4166 115.511 76.2438 114.338 75.0711C114.338 75.0711 114.338 74.7779 114.045 74.7779C113.166 73.6052 112.579 72.4325 111.993 71.2597C111.407 69.7938 110.527 68.3279 109.647 66.862C109.061 66.2756 108.768 65.3961 108.182 64.8097C107.888 64.2234 107.302 63.3438 106.423 63.0506C105.25 62.1711 103.784 61.8779 102.611 62.4643L102.025 62.1711C100.559 63.3438 99.6793 64.8097 99.093 66.5688C97.3339 70.9666 95.868 75.3643 94.6952 80.0552L94.1089 82.6938L88.8316 99.9916L72.9998 69.5006Z" fill="url(#paint20_linear_4122_13762)"/>
<path d="M132.223 50.1523C131.343 50.1523 130.17 50.4455 129.291 50.4455C131.636 53.9637 133.689 57.4819 135.155 61.2932C135.741 63.0523 136.327 64.8114 136.327 66.5705C136.327 68.3296 136.034 69.7955 135.448 71.5546C134.568 73.0205 133.689 74.4864 132.809 75.6591C131.636 76.8319 130.17 78.0046 128.705 78.2978C127.239 78.8841 125.48 79.1773 123.72 79.1773C121.375 79.1773 119.323 78.5909 117.27 77.4182L116.098 82.4023C115.218 86.2137 113.752 89.7319 111.993 93.25C111.114 95.3023 109.941 97.3546 108.768 99.4069C107.889 100.58 106.716 101.752 105.25 102.339C104.664 102.339 104.077 102.632 103.784 102.632C103.198 102.632 102.611 102.339 102.025 102.045C101.145 101.166 100.266 100.286 99.6796 99.1137C99.0932 97.941 98.5068 96.7682 97.9205 95.3023C96.7477 92.6637 94.9886 85.9205 94.9886 85.9205L93.2296 78.8841L91.4705 71.8478L90.2977 67.1569C88.8318 60.7069 86.1932 54.55 82.3818 48.9796C78.8636 43.7023 73.5864 39.8909 67.7227 37.8387C63.325 36.3728 58.3409 36.0796 53.65 36.666C45.4409 38.425 38.4045 43.4091 33.7136 50.4455C34.8864 50.7387 36.0591 51.325 37.2318 51.9114C38.6977 52.791 39.8705 53.9637 40.75 55.1364C42.2159 57.775 43.0955 60.4137 43.0955 63.3455C43.6818 69.5023 44.8545 75.9523 46.6136 81.8159C48.3727 75.0728 51.3045 68.916 55.1159 63.0523C55.7023 62.466 56.2886 61.8796 56.875 61.2932C57.1682 61 57.7545 61 58.0477 61C58.9273 61 59.5136 61.2932 60.1 61.5864C60.3932 61.5864 60.3932 61.8796 60.3932 61.8796C60.9795 62.4659 61.5659 63.0523 62.1523 63.6387C63.0318 65.3978 63.9114 67.1569 64.7909 68.916C66.2568 73.0205 67.4296 78.0046 67.4296 78.0046L70.9477 92.3705C72.1205 97.3546 73.8795 102.339 75.9318 107.03C81.5023 119.93 90.0046 123.448 90.0046 123.448C94.1091 125.5 98.8 126.966 103.491 126.966C107.889 127.259 112.58 126.086 116.391 124.327C120.789 121.982 124.6 119.05 127.825 115.239C129.584 112.6 131.343 109.961 132.809 107.03C136.327 100.286 138.673 93.25 140.725 85.9205C141.898 81.5228 143.07 76.8319 143.657 72.1409C143.95 69.7955 144.243 67.7432 144.536 65.3978C144.83 63.3455 144.83 61 144.243 58.9478C143.95 58.6546 143.95 58.3614 143.95 57.775C142.777 55.1364 141.018 52.791 138.38 51.325C136.62 50.7387 134.275 50.1523 132.223 50.1523Z" fill="url(#paint21_linear_4122_13762)"/>
<path d="M132.223 50.1523C131.343 50.1523 130.17 50.4455 129.291 50.4455C131.636 53.9637 133.689 57.4819 135.155 61.2932C135.741 63.0523 136.327 64.8114 136.327 66.5705C136.327 68.3296 136.034 69.7955 135.448 71.5546C134.568 73.0205 133.689 74.4864 132.809 75.6591C131.636 76.8319 130.17 78.0046 128.705 78.2978C127.239 78.8841 125.48 79.1773 123.72 79.1773C121.375 79.1773 119.323 78.5909 117.27 77.4182L116.098 82.4023C115.218 86.2137 113.752 89.7319 111.993 93.25C111.114 95.3023 109.941 97.3546 108.768 99.4069C107.889 100.58 106.716 101.752 105.25 102.339C104.664 102.339 104.077 102.632 103.784 102.632C103.198 102.632 102.611 102.339 102.025 102.045C101.145 101.166 100.266 100.286 99.6796 99.1137C99.0932 97.941 98.5068 96.7682 97.9205 95.3023C96.7477 92.6637 94.9886 85.9205 94.9886 85.9205L93.2296 78.8841L91.4705 71.8478L90.2977 67.1569C88.8318 60.7069 86.1932 54.55 82.3818 48.9796C78.8636 43.7023 73.5864 39.8909 67.7227 37.8387C63.325 36.3728 58.3409 36.0796 53.65 36.666C45.4409 38.425 38.4045 43.4091 33.7136 50.4455C34.8864 50.7387 36.0591 51.325 37.2318 51.9114C38.6977 52.791 39.8705 53.9637 40.75 55.1364C42.2159 57.775 43.0955 60.4137 43.0955 63.3455C43.6818 69.5023 44.8545 75.9523 46.6136 81.8159C48.3727 75.0728 51.3045 68.916 55.1159 63.0523C55.7023 62.466 56.2886 61.8796 56.875 61.2932C57.1682 61 57.7545 61 58.0477 61C58.9273 61 59.5136 61.2932 60.1 61.5864C60.3932 61.5864 60.3932 61.8796 60.3932 61.8796C60.9795 62.4659 61.5659 63.0523 62.1523 63.6387C63.0318 65.3978 63.9114 67.1569 64.7909 68.916C66.2568 73.0205 67.4296 78.0046 67.4296 78.0046L70.9477 92.3705C72.1205 97.3546 73.8795 102.339 75.9318 107.03C81.5023 119.93 90.0046 123.448 90.0046 123.448C94.1091 125.5 98.8 126.966 103.491 126.966C107.889 127.259 112.58 126.086 116.391 124.327C120.789 121.982 124.6 119.05 127.825 115.239C129.584 112.6 131.343 109.961 132.809 107.03C136.327 100.286 138.673 93.25 140.725 85.9205C141.898 81.5228 143.07 76.8319 143.657 72.1409C143.95 69.7955 144.243 67.7432 144.536 65.3978C144.83 63.3455 144.83 61 144.243 58.9478C143.95 58.6546 143.95 58.3614 143.95 57.775C142.777 55.1364 141.018 52.791 138.38 51.325C136.62 50.7387 134.275 50.1523 132.223 50.1523Z" fill="url(#paint22_radial_4122_13762)"/>
<path d="M132.223 50.1523C131.343 50.1523 130.17 50.4455 129.291 50.4455C131.636 53.9637 133.689 57.4819 135.155 61.2932C135.741 63.0523 136.327 64.8114 136.327 66.5705C136.327 68.3296 136.034 69.7955 135.448 71.5546C134.568 73.0205 133.689 74.4864 132.809 75.6591C131.636 76.8319 130.17 78.0046 128.705 78.2978C127.239 78.8841 125.48 79.1773 123.72 79.1773C121.375 79.1773 119.323 78.5909 117.27 77.4182L116.098 82.4023C115.218 86.2137 113.752 89.7319 111.993 93.25C111.114 95.3023 109.941 97.3546 108.768 99.4069C107.889 100.58 106.716 101.752 105.25 102.339C104.664 102.339 104.077 102.632 103.784 102.632C103.198 102.632 102.611 102.339 102.025 102.045C101.145 101.166 100.266 100.286 99.6796 99.1137C99.0932 97.941 98.5068 96.7682 97.9205 95.3023C96.7477 92.6637 94.9886 85.9205 94.9886 85.9205L93.2296 78.8841L91.4705 71.8478L90.2977 67.1569C88.8318 60.7069 86.1932 54.55 82.3818 48.9796C78.8636 43.7023 73.5864 39.8909 67.7227 37.8387C63.325 36.3728 58.3409 36.0796 53.65 36.666C45.4409 38.425 38.4045 43.4091 33.7136 50.4455C34.8864 50.7387 36.0591 51.325 37.2318 51.9114C38.6977 52.791 39.8705 53.9637 40.75 55.1364C42.2159 57.775 43.0955 60.4137 43.0955 63.3455C43.6818 69.5023 44.8545 75.9523 46.6136 81.8159C48.3727 75.0728 51.3045 68.916 55.1159 63.0523C55.7023 62.466 56.2886 61.8796 56.875 61.2932C57.1682 61 57.7545 61 58.0477 61C58.9273 61 59.5136 61.2932 60.1 61.5864C60.3932 61.5864 60.3932 61.8796 60.3932 61.8796C60.9795 62.4659 61.5659 63.0523 62.1523 63.6387C63.0318 65.3978 63.9114 67.1569 64.7909 68.916C66.2568 73.0205 67.4296 78.0046 67.4296 78.0046L70.9477 92.3705C72.1205 97.3546 73.8795 102.339 75.9318 107.03C81.5023 119.93 90.0046 123.448 90.0046 123.448C94.1091 125.5 98.8 126.966 103.491 126.966C107.889 127.259 112.58 126.086 116.391 124.327C120.789 121.982 124.6 119.05 127.825 115.239C129.584 112.6 131.343 109.961 132.809 107.03C136.327 100.286 138.673 93.25 140.725 85.9205C141.898 81.5228 143.07 76.8319 143.657 72.1409C143.95 69.7955 144.243 67.7432 144.536 65.3978C144.83 63.3455 144.83 61 144.243 58.9478C143.95 58.6546 143.95 58.3614 143.95 57.775C142.777 55.1364 141.018 52.791 138.38 51.325C136.62 50.7387 134.275 50.1523 132.223 50.1523Z" fill="url(#paint23_radial_4122_13762)"/>
<path d="M132.223 50.1523C131.343 50.1523 130.17 50.4455 129.291 50.4455C131.636 53.9637 133.689 57.4819 135.155 61.2932C135.741 63.0523 136.327 64.8114 136.327 66.5705C136.327 68.3296 136.034 69.7955 135.448 71.5546C134.568 73.0205 133.689 74.4864 132.809 75.6591C131.636 76.8319 130.17 78.0046 128.705 78.2978C127.239 78.8841 125.48 79.1773 123.72 79.1773C121.375 79.1773 119.323 78.5909 117.27 77.4182L116.098 82.4023C115.218 86.2137 113.752 89.7319 111.993 93.25C111.114 95.3023 109.941 97.3546 108.768 99.4069C107.889 100.58 106.716 101.752 105.25 102.339C104.664 102.339 104.077 102.632 103.784 102.632C103.198 102.632 102.611 102.339 102.025 102.045C101.145 101.166 100.266 100.286 99.6796 99.1137C99.0932 97.941 98.5068 96.7682 97.9205 95.3023C96.7477 92.6637 94.9886 85.9205 94.9886 85.9205L93.2296 78.8841L91.4705 71.8478L90.2977 67.1569C88.8318 60.7069 86.1932 54.55 82.3818 48.9796C78.8636 43.7023 73.5864 39.8909 67.7227 37.8387C63.325 36.3728 58.3409 36.0796 53.65 36.666C45.4409 38.425 38.4045 43.4091 33.7136 50.4455C34.8864 50.7387 36.0591 51.325 37.2318 51.9114C38.6977 52.791 39.8705 53.9637 40.75 55.1364C42.2159 57.775 43.0955 60.4137 43.0955 63.3455C43.6818 69.5023 44.8545 75.9523 46.6136 81.8159C48.3727 75.0728 51.3045 68.916 55.1159 63.0523C55.7023 62.466 56.2886 61.8796 56.875 61.2932C57.1682 61 57.7545 61 58.0477 61C58.9273 61 59.5136 61.2932 60.1 61.5864C60.3932 61.5864 60.3932 61.8796 60.3932 61.8796C60.9795 62.4659 61.5659 63.0523 62.1523 63.6387C63.0318 65.3978 63.9114 67.1569 64.7909 68.916C66.2568 73.0205 67.4296 78.0046 67.4296 78.0046L70.9477 92.3705C72.1205 97.3546 73.8795 102.339 75.9318 107.03C81.5023 119.93 90.0046 123.448 90.0046 123.448C94.1091 125.5 98.8 126.966 103.491 126.966C107.889 127.259 112.58 126.086 116.391 124.327C120.789 121.982 124.6 119.05 127.825 115.239C129.584 112.6 131.343 109.961 132.809 107.03C136.327 100.286 138.673 93.25 140.725 85.9205C141.898 81.5228 143.07 76.8319 143.657 72.1409C143.95 69.7955 144.243 67.7432 144.536 65.3978C144.83 63.3455 144.83 61 144.243 58.9478C143.95 58.6546 143.95 58.3614 143.95 57.775C142.777 55.1364 141.018 52.791 138.38 51.325C136.62 50.7387 134.275 50.1523 132.223 50.1523Z" fill="url(#paint24_radial_4122_13762)"/>
<path d="M132.223 50.1523C131.343 50.1523 130.17 50.4455 129.291 50.4455C131.636 53.9637 133.689 57.4819 135.155 61.2932C135.741 63.0523 136.327 64.8114 136.327 66.5705C136.327 68.3296 136.034 69.7955 135.448 71.5546C134.568 73.0205 133.689 74.4864 132.809 75.6591C131.636 76.8319 130.17 78.0046 128.705 78.2978C127.239 78.8841 125.48 79.1773 123.72 79.1773C121.375 79.1773 119.323 78.5909 117.27 77.4182L116.098 82.4023C115.218 86.2137 113.752 89.7319 111.993 93.25C111.114 95.3023 109.941 97.3546 108.768 99.4069C107.889 100.58 106.716 101.752 105.25 102.339C104.664 102.339 104.077 102.632 103.784 102.632C103.198 102.632 102.611 102.339 102.025 102.045C101.145 101.166 100.266 100.286 99.6796 99.1137C99.0932 97.941 98.5068 96.7682 97.9205 95.3023C96.7477 92.6637 94.9886 85.9205 94.9886 85.9205L93.2296 78.8841L91.4705 71.8478L90.2977 67.1569C88.8318 60.7069 86.1932 54.55 82.3818 48.9796C78.8636 43.7023 73.5864 39.8909 67.7227 37.8387C63.325 36.3728 58.3409 36.0796 53.65 36.666C45.4409 38.425 38.4045 43.4091 33.7136 50.4455C34.8864 50.7387 36.0591 51.325 37.2318 51.9114C38.6977 52.791 39.8705 53.9637 40.75 55.1364C42.2159 57.775 43.0955 60.4137 43.0955 63.3455C43.6818 69.5023 44.8545 75.9523 46.6136 81.8159C48.3727 75.0728 51.3045 68.916 55.1159 63.0523C55.7023 62.466 56.2886 61.8796 56.875 61.2932C57.1682 61 57.7545 61 58.0477 61C58.9273 61 59.5136 61.2932 60.1 61.5864C60.3932 61.5864 60.3932 61.8796 60.3932 61.8796C60.9795 62.4659 61.5659 63.0523 62.1523 63.6387C63.0318 65.3978 63.9114 67.1569 64.7909 68.916C66.2568 73.0205 67.4296 78.0046 67.4296 78.0046L70.9477 92.3705C72.1205 97.3546 73.8795 102.339 75.9318 107.03C81.5023 119.93 90.0046 123.448 90.0046 123.448C94.1091 125.5 98.8 126.966 103.491 126.966C107.889 127.259 112.58 126.086 116.391 124.327C120.789 121.982 124.6 119.05 127.825 115.239C129.584 112.6 131.343 109.961 132.809 107.03C136.327 100.286 138.673 93.25 140.725 85.9205C141.898 81.5228 143.07 76.8319 143.657 72.1409C143.95 69.7955 144.243 67.7432 144.536 65.3978C144.83 63.3455 144.83 61 144.243 58.9478C143.95 58.6546 143.95 58.3614 143.95 57.775C142.777 55.1364 141.018 52.791 138.38 51.325C136.62 50.7387 134.275 50.1523 132.223 50.1523Z" fill="url(#paint25_radial_4122_13762)"/>
<path d="M132.223 50.1523C131.343 50.1523 130.17 50.4455 129.291 50.4455C131.636 53.9637 133.689 57.4819 135.155 61.2932C135.741 63.0523 136.327 64.8114 136.327 66.5705C136.327 68.3296 136.034 69.7955 135.448 71.5546C134.568 73.0205 133.689 74.4864 132.809 75.6591C131.636 76.8319 130.17 78.0046 128.705 78.2978C127.239 78.8841 125.48 79.1773 123.72 79.1773C121.375 79.1773 119.323 78.5909 117.27 77.4182L116.098 82.4023C115.218 86.2137 113.752 89.7319 111.993 93.25C111.114 95.3023 109.941 97.3546 108.768 99.4069C107.889 100.58 106.716 101.752 105.25 102.339C104.664 102.339 104.077 102.632 103.784 102.632C103.198 102.632 102.611 102.339 102.025 102.045C101.145 101.166 100.266 100.286 99.6796 99.1137C99.0932 97.941 98.5068 96.7682 97.9205 95.3023C96.7477 92.6637 94.9886 85.9205 94.9886 85.9205L93.2296 78.8841L91.4705 71.8478L90.2977 67.1569C88.8318 60.7069 86.1932 54.55 82.3818 48.9796C78.8636 43.7023 73.5864 39.8909 67.7227 37.8387C63.325 36.3728 58.3409 36.0796 53.65 36.666C45.4409 38.425 38.4045 43.4091 33.7136 50.4455C34.8864 50.7387 36.0591 51.325 37.2318 51.9114C38.6977 52.791 39.8705 53.9637 40.75 55.1364C42.2159 57.775 43.0955 60.4137 43.0955 63.3455C43.6818 69.5023 44.8545 75.9523 46.6136 81.8159C48.3727 75.0728 51.3045 68.916 55.1159 63.0523C55.7023 62.466 56.2886 61.8796 56.875 61.2932C57.1682 61 57.7545 61 58.0477 61C58.9273 61 59.5136 61.2932 60.1 61.5864C60.3932 61.5864 60.3932 61.8796 60.3932 61.8796C60.9795 62.4659 61.5659 63.0523 62.1523 63.6387C63.0318 65.3978 63.9114 67.1569 64.7909 68.916C66.2568 73.0205 67.4296 78.0046 67.4296 78.0046L70.9477 92.3705C72.1205 97.3546 73.8795 102.339 75.9318 107.03C81.5023 119.93 90.0046 123.448 90.0046 123.448C94.1091 125.5 98.8 126.966 103.491 126.966C107.889 127.259 112.58 126.086 116.391 124.327C120.789 121.982 124.6 119.05 127.825 115.239C129.584 112.6 131.343 109.961 132.809 107.03C136.327 100.286 138.673 93.25 140.725 85.9205C141.898 81.5228 143.07 76.8319 143.657 72.1409C143.95 69.7955 144.243 67.7432 144.536 65.3978C144.83 63.3455 144.83 61 144.243 58.9478C143.95 58.6546 143.95 58.3614 143.95 57.775C142.777 55.1364 141.018 52.791 138.38 51.325C136.62 50.7387 134.275 50.1523 132.223 50.1523Z" fill="url(#paint26_radial_4122_13762)"/>
<path d="M132.223 50.1523C131.343 50.1523 130.17 50.4455 129.291 50.4455C131.636 53.9637 133.689 57.4819 135.155 61.2932C135.741 63.0523 136.327 64.8114 136.327 66.5705C136.327 68.3296 136.034 69.7955 135.448 71.5546C134.568 73.0205 133.689 74.4864 132.809 75.6591C131.636 76.8319 130.17 78.0046 128.705 78.2978C127.239 78.8841 125.48 79.1773 123.72 79.1773C121.375 79.1773 119.323 78.5909 117.27 77.4182L116.098 82.4023C115.218 86.2137 113.752 89.7319 111.993 93.25C111.114 95.3023 109.941 97.3546 108.768 99.4069C107.889 100.58 106.716 101.752 105.25 102.339C104.664 102.339 104.077 102.632 103.784 102.632C103.198 102.632 102.611 102.339 102.025 102.045C101.145 101.166 100.266 100.286 99.6796 99.1137C99.0932 97.941 98.5068 96.7682 97.9205 95.3023C96.7477 92.6637 94.9886 85.9205 94.9886 85.9205L93.2296 78.8841L91.4705 71.8478L90.2977 67.1569C88.8318 60.7069 86.1932 54.55 82.3818 48.9796C78.8636 43.7023 73.5864 39.8909 67.7227 37.8387C63.325 36.3728 58.3409 36.0796 53.65 36.666C45.4409 38.425 38.4045 43.4091 33.7136 50.4455C34.8864 50.7387 36.0591 51.325 37.2318 51.9114C38.6977 52.791 39.8705 53.9637 40.75 55.1364C42.2159 57.775 43.0955 60.4137 43.0955 63.3455C43.6818 69.5023 44.8545 75.9523 46.6136 81.8159C48.3727 75.0728 51.3045 68.916 55.1159 63.0523C55.7023 62.466 56.2886 61.8796 56.875 61.2932C57.1682 61 57.7545 61 58.0477 61C58.9273 61 59.5136 61.2932 60.1 61.5864C60.3932 61.5864 60.3932 61.8796 60.3932 61.8796C60.9795 62.4659 61.5659 63.0523 62.1523 63.6387C63.0318 65.3978 63.9114 67.1569 64.7909 68.916C66.2568 73.0205 67.4296 78.0046 67.4296 78.0046L70.9477 92.3705C72.1205 97.3546 73.8795 102.339 75.9318 107.03C81.5023 119.93 90.0046 123.448 90.0046 123.448C94.1091 125.5 98.8 126.966 103.491 126.966C107.889 127.259 112.58 126.086 116.391 124.327C120.789 121.982 124.6 119.05 127.825 115.239C129.584 112.6 131.343 109.961 132.809 107.03C136.327 100.286 138.673 93.25 140.725 85.9205C141.898 81.5228 143.07 76.8319 143.657 72.1409C143.95 69.7955 144.243 67.7432 144.536 65.3978C144.83 63.3455 144.83 61 144.243 58.9478C143.95 58.6546 143.95 58.3614 143.95 57.775C142.777 55.1364 141.018 52.791 138.38 51.325C136.62 50.7387 134.275 50.1523 132.223 50.1523Z" fill="url(#paint27_radial_4122_13762)"/>
<path d="M132.223 50.1523C131.343 50.1523 130.17 50.4455 129.291 50.4455C131.636 53.9637 133.689 57.4819 135.155 61.2932C135.741 63.0523 136.327 64.8114 136.327 66.5705C136.327 68.3296 136.034 69.7955 135.448 71.5546C134.568 73.0205 133.689 74.4864 132.809 75.6591C131.636 76.8319 130.17 78.0046 128.705 78.2978C127.239 78.8841 125.48 79.1773 123.72 79.1773C121.375 79.1773 119.323 78.5909 117.27 77.4182L116.098 82.4023C115.218 86.2137 113.752 89.7319 111.993 93.25C111.114 95.3023 109.941 97.3546 108.768 99.4069C107.889 100.58 106.716 101.752 105.25 102.339C104.664 102.339 104.077 102.632 103.784 102.632C103.198 102.632 102.611 102.339 102.025 102.045C101.145 101.166 100.266 100.286 99.6796 99.1137C99.0932 97.941 98.5068 96.7682 97.9205 95.3023C96.7477 92.6637 94.9886 85.9205 94.9886 85.9205L93.2296 78.8841L91.4705 71.8478L90.2977 67.1569C88.8318 60.7069 86.1932 54.55 82.3818 48.9796C78.8636 43.7023 73.5864 39.8909 67.7227 37.8387C63.325 36.3728 58.3409 36.0796 53.65 36.666C45.4409 38.425 38.4045 43.4091 33.7136 50.4455C34.8864 50.7387 36.0591 51.325 37.2318 51.9114C38.6977 52.791 39.8705 53.9637 40.75 55.1364C42.2159 57.775 43.0955 60.4137 43.0955 63.3455C43.6818 69.5023 44.8545 75.9523 46.6136 81.8159C48.3727 75.0728 51.3045 68.916 55.1159 63.0523C55.7023 62.466 56.2886 61.8796 56.875 61.2932C57.1682 61 57.7545 61 58.0477 61C58.9273 61 59.5136 61.2932 60.1 61.5864C60.3932 61.5864 60.3932 61.8796 60.3932 61.8796C60.9795 62.4659 61.5659 63.0523 62.1523 63.6387C63.0318 65.3978 63.9114 67.1569 64.7909 68.916C66.2568 73.0205 67.4296 78.0046 67.4296 78.0046L70.9477 92.3705C72.1205 97.3546 73.8795 102.339 75.9318 107.03C81.5023 119.93 90.0046 123.448 90.0046 123.448C94.1091 125.5 98.8 126.966 103.491 126.966C107.889 127.259 112.58 126.086 116.391 124.327C120.789 121.982 124.6 119.05 127.825 115.239C129.584 112.6 131.343 109.961 132.809 107.03C136.327 100.286 138.673 93.25 140.725 85.9205C141.898 81.5228 143.07 76.8319 143.657 72.1409C143.95 69.7955 144.243 67.7432 144.536 65.3978C144.83 63.3455 144.83 61 144.243 58.9478C143.95 58.6546 143.95 58.3614 143.95 57.775C142.777 55.1364 141.018 52.791 138.38 51.325C136.62 50.7387 134.275 50.1523 132.223 50.1523Z" fill="url(#paint28_radial_4122_13762)"/>
<path d="M132.223 50.1523C131.343 50.1523 130.17 50.4455 129.291 50.4455C131.636 53.9637 133.689 57.4819 135.155 61.2932C135.741 63.0523 136.327 64.8114 136.327 66.5705C136.327 68.3296 136.034 69.7955 135.448 71.5546C134.568 73.0205 133.689 74.4864 132.809 75.6591C131.636 76.8319 130.17 78.0046 128.705 78.2978C127.239 78.8841 125.48 79.1773 123.72 79.1773C121.375 79.1773 119.323 78.5909 117.27 77.4182L116.098 82.4023C115.218 86.2137 113.752 89.7319 111.993 93.25C111.114 95.3023 109.941 97.3546 108.768 99.4069C107.889 100.58 106.716 101.752 105.25 102.339C104.664 102.339 104.077 102.632 103.784 102.632C103.198 102.632 102.611 102.339 102.025 102.045C101.145 101.166 100.266 100.286 99.6796 99.1137C99.0932 97.941 98.5068 96.7682 97.9205 95.3023C96.7477 92.6637 94.9886 85.9205 94.9886 85.9205L93.2296 78.8841L91.4705 71.8478L90.2977 67.1569C88.8318 60.7069 86.1932 54.55 82.3818 48.9796C78.8636 43.7023 73.5864 39.8909 67.7227 37.8387C63.325 36.3728 58.3409 36.0796 53.65 36.666C45.4409 38.425 38.4045 43.4091 33.7136 50.4455C34.8864 50.7387 36.0591 51.325 37.2318 51.9114C38.6977 52.791 39.8705 53.9637 40.75 55.1364C42.2159 57.775 43.0955 60.4137 43.0955 63.3455C43.6818 69.5023 44.8545 75.9523 46.6136 81.8159C48.3727 75.0728 51.3045 68.916 55.1159 63.0523C55.7023 62.466 56.2886 61.8796 56.875 61.2932C57.1682 61 57.7545 61 58.0477 61C58.9273 61 59.5136 61.2932 60.1 61.5864C60.3932 61.5864 60.3932 61.8796 60.3932 61.8796C60.9795 62.4659 61.5659 63.0523 62.1523 63.6387C63.0318 65.3978 63.9114 67.1569 64.7909 68.916C66.2568 73.0205 67.4296 78.0046 67.4296 78.0046L70.9477 92.3705C72.1205 97.3546 73.8795 102.339 75.9318 107.03C81.5023 119.93 90.0046 123.448 90.0046 123.448C94.1091 125.5 98.8 126.966 103.491 126.966C107.889 127.259 112.58 126.086 116.391 124.327C120.789 121.982 124.6 119.05 127.825 115.239C129.584 112.6 131.343 109.961 132.809 107.03C136.327 100.286 138.673 93.25 140.725 85.9205C141.898 81.5228 143.07 76.8319 143.657 72.1409C143.95 69.7955 144.243 67.7432 144.536 65.3978C144.83 63.3455 144.83 61 144.243 58.9478C143.95 58.6546 143.95 58.3614 143.95 57.775C142.777 55.1364 141.018 52.791 138.38 51.325C136.62 50.7387 134.275 50.1523 132.223 50.1523Z" fill="url(#paint29_radial_4122_13762)"/>
<path d="M132.223 50.1523C131.343 50.1523 130.17 50.4455 129.291 50.4455C131.636 53.9637 133.689 57.4819 135.155 61.2932C135.741 63.0523 136.327 64.8114 136.327 66.5705C136.327 68.3296 136.034 69.7955 135.448 71.5546C134.568 73.0205 133.689 74.4864 132.809 75.6591C131.636 76.8319 130.17 78.0046 128.705 78.2978C127.239 78.8841 125.48 79.1773 123.72 79.1773C121.375 79.1773 119.323 78.5909 117.27 77.4182L116.098 82.4023C115.218 86.2137 113.752 89.7319 111.993 93.25C111.114 95.3023 109.941 97.3546 108.768 99.4069C107.889 100.58 106.716 101.752 105.25 102.339C104.664 102.339 104.077 102.632 103.784 102.632C103.198 102.632 102.611 102.339 102.025 102.045C101.145 101.166 100.266 100.286 99.6796 99.1137C99.0932 97.941 98.5068 96.7682 97.9205 95.3023C96.7477 92.6637 94.9886 85.9205 94.9886 85.9205L93.2296 78.8841L91.4705 71.8478L90.2977 67.1569C88.8318 60.7069 86.1932 54.55 82.3818 48.9796C78.8636 43.7023 73.5864 39.8909 67.7227 37.8387C63.325 36.3728 58.3409 36.0796 53.65 36.666C45.4409 38.425 38.4045 43.4091 33.7136 50.4455C34.8864 50.7387 36.0591 51.325 37.2318 51.9114C38.6977 52.791 39.8705 53.9637 40.75 55.1364C42.2159 57.775 43.0955 60.4137 43.0955 63.3455C43.6818 69.5023 44.8545 75.9523 46.6136 81.8159C48.3727 75.0728 51.3045 68.916 55.1159 63.0523C55.7023 62.466 56.2886 61.8796 56.875 61.2932C57.1682 61 57.7545 61 58.0477 61C58.9273 61 59.5136 61.2932 60.1 61.5864C60.3932 61.5864 60.3932 61.8796 60.3932 61.8796C60.9795 62.4659 61.5659 63.0523 62.1523 63.6387C63.0318 65.3978 63.9114 67.1569 64.7909 68.916C66.2568 73.0205 67.4296 78.0046 67.4296 78.0046L70.9477 92.3705C72.1205 97.3546 73.8795 102.339 75.9318 107.03C81.5023 119.93 90.0046 123.448 90.0046 123.448C94.1091 125.5 98.8 126.966 103.491 126.966C107.889 127.259 112.58 126.086 116.391 124.327C120.789 121.982 124.6 119.05 127.825 115.239C129.584 112.6 131.343 109.961 132.809 107.03C136.327 100.286 138.673 93.25 140.725 85.9205C141.898 81.5228 143.07 76.8319 143.657 72.1409C143.95 69.7955 144.243 67.7432 144.536 65.3978C144.83 63.3455 144.83 61 144.243 58.9478C143.95 58.6546 143.95 58.3614 143.95 57.775C142.777 55.1364 141.018 52.791 138.38 51.325C136.62 50.7387 134.275 50.1523 132.223 50.1523Z" fill="url(#paint30_radial_4122_13762)"/>
<path d="M132.223 50.1523C131.343 50.1523 130.17 50.4455 129.291 50.4455C131.636 53.9637 133.689 57.4819 135.155 61.2932C135.741 63.0523 136.327 64.8114 136.327 66.5705C136.327 68.3296 136.034 69.7955 135.448 71.5546C134.568 73.0205 133.689 74.4864 132.809 75.6591C131.636 76.8319 130.17 78.0046 128.705 78.2978C127.239 78.8841 125.48 79.1773 123.72 79.1773C121.375 79.1773 119.323 78.5909 117.27 77.4182L116.098 82.4023C115.218 86.2137 113.752 89.7319 111.993 93.25C111.114 95.3023 109.941 97.3546 108.768 99.4069C107.889 100.58 106.716 101.752 105.25 102.339C104.664 102.339 104.077 102.632 103.784 102.632C103.198 102.632 102.611 102.339 102.025 102.045C101.145 101.166 100.266 100.286 99.6796 99.1137C99.0932 97.941 98.5068 96.7682 97.9205 95.3023C96.7477 92.6637 94.9886 85.9205 94.9886 85.9205L93.2296 78.8841L91.4705 71.8478L90.2977 67.1569C88.8318 60.7069 86.1932 54.55 82.3818 48.9796C78.8636 43.7023 73.5864 39.8909 67.7227 37.8387C63.325 36.3728 58.3409 36.0796 53.65 36.666C45.4409 38.425 38.4045 43.4091 33.7136 50.4455C34.8864 50.7387 36.0591 51.325 37.2318 51.9114C38.6977 52.791 39.8705 53.9637 40.75 55.1364C42.2159 57.775 43.0955 60.4137 43.0955 63.3455C43.6818 69.5023 44.8545 75.9523 46.6136 81.8159C48.3727 75.0728 51.3045 68.916 55.1159 63.0523C55.7023 62.466 56.2886 61.8796 56.875 61.2932C57.1682 61 57.7545 61 58.0477 61C58.9273 61 59.5136 61.2932 60.1 61.5864C60.3932 61.5864 60.3932 61.8796 60.3932 61.8796C60.9795 62.4659 61.5659 63.0523 62.1523 63.6387C63.0318 65.3978 63.9114 67.1569 64.7909 68.916C66.2568 73.0205 67.4296 78.0046 67.4296 78.0046L70.9477 92.3705C72.1205 97.3546 73.8795 102.339 75.9318 107.03C81.5023 119.93 90.0046 123.448 90.0046 123.448C94.1091 125.5 98.8 126.966 103.491 126.966C107.889 127.259 112.58 126.086 116.391 124.327C120.789 121.982 124.6 119.05 127.825 115.239C129.584 112.6 131.343 109.961 132.809 107.03C136.327 100.286 138.673 93.25 140.725 85.9205C141.898 81.5228 143.07 76.8319 143.657 72.1409C143.95 69.7955 144.243 67.7432 144.536 65.3978C144.83 63.3455 144.83 61 144.243 58.9478C143.95 58.6546 143.95 58.3614 143.95 57.775C142.777 55.1364 141.018 52.791 138.38 51.325C136.62 50.7387 134.275 50.1523 132.223 50.1523Z" fill="url(#paint31_radial_4122_13762)"/>
<path d="M132.223 50.1523C131.343 50.1523 130.17 50.4455 129.291 50.4455C131.636 53.9637 133.689 57.4819 135.155 61.2932C135.741 63.0523 136.327 64.8114 136.327 66.5705C136.327 68.3296 136.034 69.7955 135.448 71.5546C134.568 73.0205 133.689 74.4864 132.809 75.6591C131.636 76.8319 130.17 78.0046 128.705 78.2978C127.239 78.8841 125.48 79.1773 123.72 79.1773C121.375 79.1773 119.323 78.5909 117.27 77.4182L116.098 82.4023C115.218 86.2137 113.752 89.7319 111.993 93.25C111.114 95.3023 109.941 97.3546 108.768 99.4069C107.889 100.58 106.716 101.752 105.25 102.339C104.664 102.339 104.077 102.632 103.784 102.632C103.198 102.632 102.611 102.339 102.025 102.045C101.145 101.166 100.266 100.286 99.6796 99.1137C99.0932 97.941 98.5068 96.7682 97.9205 95.3023C96.7477 92.6637 94.9886 85.9205 94.9886 85.9205L93.2296 78.8841L91.4705 71.8478L90.2977 67.1569C88.8318 60.7069 86.1932 54.55 82.3818 48.9796C78.8636 43.7023 73.5864 39.8909 67.7227 37.8387C63.325 36.3728 58.3409 36.0796 53.65 36.666C45.4409 38.425 38.4045 43.4091 33.7136 50.4455C34.8864 50.7387 36.0591 51.325 37.2318 51.9114C38.6977 52.791 39.8705 53.9637 40.75 55.1364C42.2159 57.775 43.0955 60.4137 43.0955 63.3455C43.6818 69.5023 44.8545 75.9523 46.6136 81.8159C48.3727 75.0728 51.3045 68.916 55.1159 63.0523C55.7023 62.466 56.2886 61.8796 56.875 61.2932C57.1682 61 57.7545 61 58.0477 61C58.9273 61 59.5136 61.2932 60.1 61.5864C60.3932 61.5864 60.3932 61.8796 60.3932 61.8796C60.9795 62.4659 61.5659 63.0523 62.1523 63.6387C63.0318 65.3978 63.9114 67.1569 64.7909 68.916C66.2568 73.0205 67.4296 78.0046 67.4296 78.0046L70.9477 92.3705C72.1205 97.3546 73.8795 102.339 75.9318 107.03C81.5023 119.93 90.0046 123.448 90.0046 123.448C94.1091 125.5 98.8 126.966 103.491 126.966C107.889 127.259 112.58 126.086 116.391 124.327C120.789 121.982 124.6 119.05 127.825 115.239C129.584 112.6 131.343 109.961 132.809 107.03C136.327 100.286 138.673 93.25 140.725 85.9205C141.898 81.5228 143.07 76.8319 143.657 72.1409C143.95 69.7955 144.243 67.7432 144.536 65.3978C144.83 63.3455 144.83 61 144.243 58.9478C143.95 58.6546 143.95 58.3614 143.95 57.775C142.777 55.1364 141.018 52.791 138.38 51.325C136.62 50.7387 134.275 50.1523 132.223 50.1523Z" fill="url(#paint32_radial_4122_13762)"/>
<path d="M132.223 50.1523C131.343 50.1523 130.17 50.4455 129.291 50.4455C131.636 53.9637 133.689 57.4819 135.155 61.2932C135.741 63.0523 136.327 64.8114 136.327 66.5705C136.327 68.3296 136.034 69.7955 135.448 71.5546C134.568 73.0205 133.689 74.4864 132.809 75.6591C131.636 76.8319 130.17 78.0046 128.705 78.2978C127.239 78.8841 125.48 79.1773 123.72 79.1773C121.375 79.1773 119.323 78.5909 117.27 77.4182L116.098 82.4023C115.218 86.2137 113.752 89.7319 111.993 93.25C111.114 95.3023 109.941 97.3546 108.768 99.4069C107.889 100.58 106.716 101.752 105.25 102.339C104.664 102.339 104.077 102.632 103.784 102.632C103.198 102.632 102.611 102.339 102.025 102.045C101.145 101.166 100.266 100.286 99.6796 99.1137C99.0932 97.941 98.5068 96.7682 97.9205 95.3023C96.7477 92.6637 94.9886 85.9205 94.9886 85.9205L93.2296 78.8841L91.4705 71.8478L90.2977 67.1569C88.8318 60.7069 86.1932 54.55 82.3818 48.9796C78.8636 43.7023 73.5864 39.8909 67.7227 37.8387C63.325 36.3728 58.3409 36.0796 53.65 36.666C45.4409 38.425 38.4045 43.4091 33.7136 50.4455C34.8864 50.7387 36.0591 51.325 37.2318 51.9114C38.6977 52.791 39.8705 53.9637 40.75 55.1364C42.2159 57.775 43.0955 60.4137 43.0955 63.3455C43.6818 69.5023 44.8545 75.9523 46.6136 81.8159C48.3727 75.0728 51.3045 68.916 55.1159 63.0523C55.7023 62.466 56.2886 61.8796 56.875 61.2932C57.1682 61 57.7545 61 58.0477 61C58.9273 61 59.5136 61.2932 60.1 61.5864C60.3932 61.5864 60.3932 61.8796 60.3932 61.8796C60.9795 62.4659 61.5659 63.0523 62.1523 63.6387C63.0318 65.3978 63.9114 67.1569 64.7909 68.916C66.2568 73.0205 67.4296 78.0046 67.4296 78.0046L70.9477 92.3705C72.1205 97.3546 73.8795 102.339 75.9318 107.03C81.5023 119.93 90.0046 123.448 90.0046 123.448C94.1091 125.5 98.8 126.966 103.491 126.966C107.889 127.259 112.58 126.086 116.391 124.327C120.789 121.982 124.6 119.05 127.825 115.239C129.584 112.6 131.343 109.961 132.809 107.03C136.327 100.286 138.673 93.25 140.725 85.9205C141.898 81.5228 143.07 76.8319 143.657 72.1409C143.95 69.7955 144.243 67.7432 144.536 65.3978C144.83 63.3455 144.83 61 144.243 58.9478C143.95 58.6546 143.95 58.3614 143.95 57.775C142.777 55.1364 141.018 52.791 138.38 51.325C136.62 50.7387 134.275 50.1523 132.223 50.1523Z" fill="url(#paint33_radial_4122_13762)"/>
<path d="M132.223 50.1523C131.343 50.1523 130.17 50.4455 129.291 50.4455C131.636 53.9637 133.689 57.4819 135.155 61.2932C135.741 63.0523 136.327 64.8114 136.327 66.5705C136.327 68.3296 136.034 69.7955 135.448 71.5546C134.568 73.0205 133.689 74.4864 132.809 75.6591C131.636 76.8319 130.17 78.0046 128.705 78.2978C127.239 78.8841 125.48 79.1773 123.72 79.1773C121.375 79.1773 119.323 78.5909 117.27 77.4182L116.098 82.4023C115.218 86.2137 113.752 89.7319 111.993 93.25C111.114 95.3023 109.941 97.3546 108.768 99.4069C107.889 100.58 106.716 101.752 105.25 102.339C104.664 102.339 104.077 102.632 103.784 102.632C103.198 102.632 102.611 102.339 102.025 102.045C101.145 101.166 100.266 100.286 99.6796 99.1137C99.0932 97.941 98.5068 96.7682 97.9205 95.3023C96.7477 92.6637 94.9886 85.9205 94.9886 85.9205L93.2296 78.8841L91.4705 71.8478L90.2977 67.1569C88.8318 60.7069 86.1932 54.55 82.3818 48.9796C78.8636 43.7023 73.5864 39.8909 67.7227 37.8387C63.325 36.3728 58.3409 36.0796 53.65 36.666C45.4409 38.425 38.4045 43.4091 33.7136 50.4455C34.8864 50.7387 36.0591 51.325 37.2318 51.9114C38.6977 52.791 39.8705 53.9637 40.75 55.1364C42.2159 57.775 43.0955 60.4137 43.0955 63.3455C43.6818 69.5023 44.8545 75.9523 46.6136 81.8159C48.3727 75.0728 51.3045 68.916 55.1159 63.0523C55.7023 62.466 56.2886 61.8796 56.875 61.2932C57.1682 61 57.7545 61 58.0477 61C58.9273 61 59.5136 61.2932 60.1 61.5864C60.3932 61.5864 60.3932 61.8796 60.3932 61.8796C60.9795 62.4659 61.5659 63.0523 62.1523 63.6387C63.0318 65.3978 63.9114 67.1569 64.7909 68.916C66.2568 73.0205 67.4296 78.0046 67.4296 78.0046L70.9477 92.3705C72.1205 97.3546 73.8795 102.339 75.9318 107.03C81.5023 119.93 90.0046 123.448 90.0046 123.448C94.1091 125.5 98.8 126.966 103.491 126.966C107.889 127.259 112.58 126.086 116.391 124.327C120.789 121.982 124.6 119.05 127.825 115.239C129.584 112.6 131.343 109.961 132.809 107.03C136.327 100.286 138.673 93.25 140.725 85.9205C141.898 81.5228 143.07 76.8319 143.657 72.1409C143.95 69.7955 144.243 67.7432 144.536 65.3978C144.83 63.3455 144.83 61 144.243 58.9478C143.95 58.6546 143.95 58.3614 143.95 57.775C142.777 55.1364 141.018 52.791 138.38 51.325C136.62 50.7387 134.275 50.1523 132.223 50.1523Z" fill="url(#paint34_linear_4122_13762)"/>
</g>
<defs>
<linearGradient id="paint0_linear_4122_13762" x1="23.1743" y1="97.9633" x2="122.182" y2="57.944" gradientUnits="userSpaceOnUse">
<stop offset="0.13" stop-color="#1CBBF3"/>
<stop offset="0.34" stop-color="#1F99A5"/>
<stop offset="0.45" stop-color="#209CA6"/>
<stop offset="0.51" stop-color="#24A4AA"/>
<stop offset="0.57" stop-color="#2BB3B0"/>
<stop offset="0.6" stop-color="#30BDB4"/>
<stop offset="0.79" stop-color="#38BA90"/>
<stop offset="1" stop-color="#60F05A"/>
</linearGradient>
<radialGradient id="paint1_radial_4122_13762" cx="0" cy="0" r="1" gradientUnits="userSpaceOnUse" gradientTransform="translate(88.8243 73.6619) rotate(74.3249) scale(47.6328 36.1921)">
<stop stop-color="#227B60"/>
<stop offset="0.14" stop-color="#227B60" stop-opacity="0.81"/>
<stop offset="0.58" stop-color="#227B60" stop-opacity="0.23"/>
<stop offset="0.78" stop-color="#227B60" stop-opacity="0"/>
</radialGradient>
<radialGradient id="paint2_radial_4122_13762" cx="0" cy="0" r="1" gradientUnits="userSpaceOnUse" gradientTransform="translate(94.9855 72.0234) rotate(91.1322) scale(32.1982 24.4715)">
<stop stop-color="#227B60"/>
<stop offset="0.25" stop-color="#227B60" stop-opacity="0.7"/>
<stop offset="0.71" stop-color="#227B60" stop-opacity="0.2"/>
<stop offset="0.92" stop-color="#227B60" stop-opacity="0"/>
</radialGradient>
<radialGradient id="paint3_radial_4122_13762" cx="0" cy="0" r="1" gradientUnits="userSpaceOnUse" gradientTransform="translate(94.3163 70.7758) rotate(88.6121) scale(30.0195 21.3103)">
<stop stop-color="#227B60"/>
<stop offset="0.07" stop-color="#227B60" stop-opacity="0.9"/>
<stop offset="0.34" stop-color="#227B60" stop-opacity="0.51"/>
<stop offset="0.59" stop-color="#227B60" stop-opacity="0.23"/>
<stop offset="0.79" stop-color="#227B60" stop-opacity="0.06"/>
<stop offset="0.92" stop-color="#227B60" stop-opacity="0"/>
</radialGradient>
<radialGradient id="paint4_radial_4122_13762" cx="0" cy="0" r="1" gradientUnits="userSpaceOnUse" gradientTransform="translate(96.4238 71.8505) rotate(88.5819) scale(24.2377 17.219)">
<stop stop-color="#227B60"/>
<stop offset="0.36" stop-color="#227B60" stop-opacity="0.63"/>
<stop offset="0.92" stop-color="#227B60" stop-opacity="0"/>
</radialGradient>
<radialGradient id="paint5_radial_4122_13762" cx="0" cy="0" r="1" gradientUnits="userSpaceOnUse" gradientTransform="translate(94.0158 71.0135) rotate(88.5989) scale(19.3282 12.3644)">
<stop stop-color="#20735A"/>
<stop offset="0.15" stop-color="#20745A" stop-opacity="0.93"/>
<stop offset="0.38" stop-color="#21755C" stop-opacity="0.74"/>
<stop offset="0.67" stop-color="#21785D" stop-opacity="0.43"/>
<stop offset="1" stop-color="#227B60" stop-opacity="0"/>
</radialGradient>
<radialGradient id="paint6_radial_4122_13762" cx="0" cy="0" r="1" gradientUnits="userSpaceOnUse" gradientTransform="translate(98.5658 75.7935) rotate(23.8095) scale(31.1136 23.3251)">
<stop stop-color="#227A61"/>
<stop offset="0.36" stop-color="#227A61" stop-opacity="0.56"/>
<stop offset="0.72" stop-color="#227A61" stop-opacity="0.16"/>
<stop offset="0.9" stop-color="#227A61" stop-opacity="0"/>
</radialGradient>
<radialGradient id="paint7_radial_4122_13762" cx="0" cy="0" r="1" gradientUnits="userSpaceOnUse" gradientTransform="translate(88.9859 24.5127) rotate(35.2779) scale(41.482 37.9363)">
<stop stop-color="#3CD9C3"/>
<stop offset="0.07" stop-color="#3BD7C1" stop-opacity="0.9"/>
<stop offset="0.41" stop-color="#38CEB9" stop-opacity="0.42"/>
<stop offset="0.65" stop-color="#36C8B4" stop-opacity="0.12"/>
<stop offset="0.76" stop-color="#35C6B2" stop-opacity="0"/>
</radialGradient>
<radialGradient id="paint8_radial_4122_13762" cx="0" cy="0" r="1" gradientUnits="userSpaceOnUse" gradientTransform="translate(-67516.3 -91814.4) rotate(35.2724) scale(7370.85 5172.49)">
<stop stop-color="#3CD9C3"/>
<stop offset="0.07" stop-color="#3BD7C1" stop-opacity="0.9"/>
<stop offset="0.41" stop-color="#38CEB9" stop-opacity="0.42"/>
<stop offset="0.65" stop-color="#36C8B4" stop-opacity="0.12"/>
<stop offset="0.76" stop-color="#35C6B2" stop-opacity="0"/>
</radialGradient>
<radialGradient id="paint9_radial_4122_13762" cx="0" cy="0" r="1" gradientUnits="userSpaceOnUse" gradientTransform="translate(104.009 81.6467) rotate(100.969) scale(36.5868 45.2139)">
<stop stop-color="#237F66" stop-opacity="0.8"/>
<stop offset="0.06" stop-color="#2C8C70" stop-opacity="0.65"/>
<stop offset="0.21" stop-color="#3DA785" stop-opacity="0.37"/>
<stop offset="0.35" stop-color="#4ABA93" stop-opacity="0.17"/>
<stop offset="0.47" stop-color="#51C59C" stop-opacity="0.04"/>
<stop offset="0.56" stop-color="#54C99F" stop-opacity="0"/>
</radialGradient>
<radialGradient id="paint10_radial_4122_13762" cx="0" cy="0" r="1" gradientUnits="userSpaceOnUse" gradientTransform="translate(84.2476 84.2601) rotate(-50.8163) scale(47.8161 51.6402)">
<stop stop-color="#167C8A"/>
<stop offset="0.04" stop-color="#167C8A" stop-opacity="0.93"/>
<stop offset="0.33" stop-color="#177F8D" stop-opacity="0.43"/>
<stop offset="0.54" stop-color="#17818F" stop-opacity="0.12"/>
<stop offset="0.65" stop-color="#178290" stop-opacity="0"/>
</radialGradient>
<radialGradient id="paint11_radial_4122_13762" cx="0" cy="0" r="1" gradientUnits="userSpaceOnUse" gradientTransform="translate(82.4503 88.4459) rotate(-31.6646) scale(46.6426 36.8563)">
<stop offset="0.05" stop-color="#177D87"/>
<stop offset="0.11" stop-color="#177E89" stop-opacity="0.8"/>
<stop offset="0.21" stop-color="#177F8B" stop-opacity="0.52"/>
<stop offset="0.32" stop-color="#17818D" stop-opacity="0.29"/>
<stop offset="0.42" stop-color="#17818F" stop-opacity="0.13"/>
<stop offset="0.51" stop-color="#178290" stop-opacity="0.03"/>
<stop offset="0.6" stop-color="#178290" stop-opacity="0"/>
</radialGradient>
<radialGradient id="paint12_radial_4122_13762" cx="0" cy="0" r="1" gradientUnits="userSpaceOnUse" gradientTransform="translate(72.7202 87.6915) rotate(-130.544) scale(27.7957 21.8789)">
<stop offset="0.26" stop-color="#177F8A"/>
<stop offset="0.27" stop-color="#177F8A" stop-opacity="0.98"/>
<stop offset="0.38" stop-color="#17808C" stop-opacity="0.68"/>
<stop offset="0.5" stop-color="#17818D" stop-opacity="0.43"/>
<stop offset="0.62" stop-color="#17818F" stop-opacity="0.24"/>
<stop offset="0.74" stop-color="#17828F" stop-opacity="0.11"/>
<stop offset="0.86" stop-color="#178290" stop-opacity="0.03"/>
<stop offset="1" stop-color="#178290" stop-opacity="0"/>
</radialGradient>
<radialGradient id="paint13_radial_4122_13762" cx="0" cy="0" r="1" gradientUnits="userSpaceOnUse" gradientTransform="translate(64.9744 96.9684) rotate(-173.11) scale(26.0661 26.0661)">
<stop stop-color="#13656E"/>
<stop offset="0.11" stop-color="#13646E" stop-opacity="0.73"/>
<stop offset="0.27" stop-color="#12646E" stop-opacity="0.41"/>
<stop offset="0.42" stop-color="#12636E" stop-opacity="0.18"/>
<stop offset="0.55" stop-color="#12636E" stop-opacity="0.05"/>
<stop offset="0.66" stop-color="#12636E" stop-opacity="0"/>
</radialGradient>
<radialGradient id="paint14_radial_4122_13762" cx="0" cy="0" r="1" gradientUnits="userSpaceOnUse" gradientTransform="translate(62.1327 101.385) rotate(-119.327) scale(18.2223 15.325)">
<stop offset="0.13" stop-color="#146A73"/>
<stop offset="0.24" stop-color="#156F79" stop-opacity="0.79"/>
<stop offset="0.45" stop-color="#167783" stop-opacity="0.45"/>
<stop offset="0.65" stop-color="#167D8A" stop-opacity="0.2"/>
<stop offset="0.82" stop-color="#17818E" stop-opacity="0.05"/>
<stop offset="0.95" stop-color="#178290" stop-opacity="0"/>
</radialGradient>
<radialGradient id="paint15_radial_4122_13762" cx="0" cy="0" r="1" gradientUnits="userSpaceOnUse" gradientTransform="translate(58.024 92.9306) rotate(-55.9731) scale(17.1514 13.592)">
<stop stop-color="#198E9C"/>
<stop offset="0.1" stop-color="#198E9C" stop-opacity="0.87"/>
<stop offset="0.41" stop-color="#198E9C" stop-opacity="0.5"/>
<stop offset="0.67" stop-color="#198E9C" stop-opacity="0.23"/>
<stop offset="0.88" stop-color="#198E9C" stop-opacity="0.06"/>
<stop offset="1" stop-color="#198E9C" stop-opacity="0"/>
</radialGradient>
<linearGradient id="paint16_linear_4122_13762" x1="29.5487" y1="34.2866" x2="73.2328" y2="74.7163" gradientUnits="userSpaceOnUse">
<stop offset="0.13" stop-color="#2BF9FF"/>
<stop offset="0.27" stop-color="#29F9FF" stop-opacity="0.64"/>
<stop offset="0.4" stop-color="#27FAFF" stop-opacity="0.3"/>
<stop offset="0.49" stop-color="#26FAFF" stop-opacity="0.08"/>
<stop offset="0.54" stop-color="#26FAFF" stop-opacity="0"/>
</linearGradient>
<linearGradient id="paint17_linear_4122_13762" x1="4.81177" y1="100.29" x2="55.8254" y2="85.8364" gradientUnits="userSpaceOnUse">
<stop stop-color="#26FAFF"/>
<stop offset="0.06" stop-color="#26FAFF" stop-opacity="0.88"/>
<stop offset="0.24" stop-color="#26FAFF" stop-opacity="0.51"/>
<stop offset="0.39" stop-color="#26FAFF" stop-opacity="0.23"/>
<stop offset="0.5" stop-color="#26FAFF" stop-opacity="0.06"/>
<stop offset="0.55" stop-color="#26FAFF" stop-opacity="0"/>
</linearGradient>
<linearGradient id="paint18_linear_4122_13762" x1="18.3304" y1="98.5564" x2="75.8233" y2="78.0337" gradientUnits="userSpaceOnUse">
<stop stop-color="#21DEFF"/>
<stop offset="0.04" stop-color="#21DEFF" stop-opacity="0.88"/>
<stop offset="0.17" stop-color="#21DEFF" stop-opacity="0.51"/>
<stop offset="0.27" stop-color="#21DEFF" stop-opacity="0.23"/>
<stop offset="0.34" stop-color="#21DEFF" stop-opacity="0.06"/>
<stop offset="0.38" stop-color="#21DEFF" stop-opacity="0"/>
</linearGradient>
<linearGradient id="paint19_linear_4122_13762" x1="73.0158" y1="68.7985" x2="105.178" y2="121.249" gradientUnits="userSpaceOnUse">
<stop offset="0.62" stop-color="#21DEFF" stop-opacity="0"/>
<stop offset="0.66" stop-color="#21DEFF" stop-opacity="0.06"/>
<stop offset="0.73" stop-color="#21DEFF" stop-opacity="0.23"/>
<stop offset="0.83" stop-color="#21DEFF" stop-opacity="0.51"/>
<stop offset="0.96" stop-color="#21DEFF" stop-opacity="0.88"/>
<stop offset="1" stop-color="#21DEFF"/>
</linearGradient>
<linearGradient id="paint20_linear_4122_13762" x1="108.708" y1="88.4525" x2="103.666" y2="63.7666" gradientUnits="userSpaceOnUse">
<stop stop-color="#44B044"/>
<stop offset="0.11" stop-color="#44B044" stop-opacity="0.8"/>
<stop offset="0.27" stop-color="#44B044" stop-opacity="0.52"/>
<stop offset="0.43" stop-color="#44B044" stop-opacity="0.29"/>
<stop offset="0.58" stop-color="#44B044" stop-opacity="0.13"/>
<stop offset="0.7" stop-color="#44B044" stop-opacity="0.03"/>
<stop offset="0.8" stop-color="#44B044" stop-opacity="0"/>
</linearGradient>
<linearGradient id="paint21_linear_4122_13762" x1="38.1993" y1="62.7594" x2="144.683" y2="97.9999" gradientUnits="userSpaceOnUse">
<stop stop-color="#3066FB"/>
<stop offset="0.38" stop-color="#2F64F7"/>
<stop offset="0.74" stop-color="#2857D9"/>
<stop offset="1" stop-color="#3C7EFF"/>
</linearGradient>
<radialGradient id="paint22_radial_4122_13762" cx="0" cy="0" r="1" gradientUnits="userSpaceOnUse" gradientTransform="translate(111.896 76.1457) rotate(98.6826) scale(57.3154 37.8238)">
<stop stop-color="#1A3D9C"/>
<stop offset="0.4" stop-color="#1A3D9C" stop-opacity="0.42"/>
<stop offset="0.7" stop-color="#1A3D9C" stop-opacity="0"/>
</radialGradient>
<radialGradient id="paint23_radial_4122_13762" cx="0" cy="0" r="1" gradientUnits="userSpaceOnUse" gradientTransform="translate(34650.2 -89420.7) rotate(98.69) scale(7050.58 3801.61)">
<stop stop-color="#1A3D9C"/>
<stop offset="0.4" stop-color="#1A3D9C" stop-opacity="0.42"/>
<stop offset="0.7" stop-color="#1A3D9C" stop-opacity="0"/>
</radialGradient>
<radialGradient id="paint24_radial_4122_13762" cx="0" cy="0" r="1" gradientUnits="userSpaceOnUse" gradientTransform="translate(30422.2 -90773.8) rotate(98.6156) scale(8396.86 3468.94)">
<stop stop-color="#1A3D9C"/>
<stop offset="0.4" stop-color="#1A3D9C" stop-opacity="0.42"/>
<stop offset="0.7" stop-color="#1A3D9C" stop-opacity="0"/>
</radialGradient>
<radialGradient id="paint25_radial_4122_13762" cx="0" cy="0" r="1" gradientUnits="userSpaceOnUse" gradientTransform="translate(105.402 78.1862) rotate(83.0813) scale(50.0978 34.9535)">
<stop stop-color="#1A3D9C"/>
<stop offset="0.16" stop-color="#1A3D9C" stop-opacity="0.69"/>
<stop offset="0.33" stop-color="#1A3D9C" stop-opacity="0.4"/>
<stop offset="0.49" stop-color="#1A3D9C" stop-opacity="0.18"/>
<stop offset="0.61" stop-color="#1A3D9C" stop-opacity="0.05"/>
<stop offset="0.7" stop-color="#1A3D9C" stop-opacity="0"/>
</radialGradient>
<radialGradient id="paint26_radial_4122_13762" cx="0" cy="0" r="1" gradientUnits="userSpaceOnUse" gradientTransform="translate(115.33 84.6181) rotate(74.631) scale(48.1465 32.7428)">
<stop stop-color="#18388F"/>
<stop offset="0.37" stop-color="#193B96" stop-opacity="0.45"/>
<stop offset="0.7" stop-color="#1A3D9C" stop-opacity="0"/>
</radialGradient>
<radialGradient id="paint27_radial_4122_13762" cx="0" cy="0" r="1" gradientUnits="userSpaceOnUse" gradientTransform="translate(110.448 97.7857) rotate(74.6428) scale(22.3754 21.2642)">
<stop stop-color="#18388F"/>
<stop offset="0.09" stop-color="#183992" stop-opacity="0.78"/>
<stop offset="0.22" stop-color="#193B96" stop-opacity="0.5"/>
<stop offset="0.35" stop-color="#193C98" stop-opacity="0.28"/>
<stop offset="0.47" stop-color="#1A3C9A" stop-opacity="0.13"/>
<stop offset="0.59" stop-color="#1A3D9C" stop-opacity="0.03"/>
<stop offset="0.7" stop-color="#1A3D9C" stop-opacity="0"/>
</radialGradient>
<radialGradient id="paint28_radial_4122_13762" cx="0" cy="0" r="1" gradientUnits="userSpaceOnUse" gradientTransform="translate(110.989 101.416) rotate(74.6428) scale(22.3754 21.2642)">
<stop stop-color="#1A3D9C" stop-opacity="0.8"/>
<stop offset="0.01" stop-color="#1A3D9C" stop-opacity="0.78"/>
<stop offset="0.24" stop-color="#1A3D9C" stop-opacity="0.45"/>
<stop offset="0.44" stop-color="#1A3D9C" stop-opacity="0.2"/>
<stop offset="0.6" stop-color="#1A3D9C" stop-opacity="0.05"/>
<stop offset="0.7" stop-color="#1A3D9C" stop-opacity="0"/>
</radialGradient>
<radialGradient id="paint29_radial_4122_13762" cx="0" cy="0" r="1" gradientUnits="userSpaceOnUse" gradientTransform="translate(57.6939 87.4813) rotate(67.0292) scale(53.424 35.4561)">
<stop stop-color="#1A3D9C"/>
<stop offset="0.4" stop-color="#1A3D9C" stop-opacity="0.56"/>
<stop offset="0.48" stop-color="#1A3D9C" stop-opacity="0.43"/>
<stop offset="0.69" stop-color="#1A3D9C" stop-opacity="0.12"/>
<stop offset="0.79" stop-color="#1A3D9C" stop-opacity="0"/>
</radialGradient>
<radialGradient id="paint30_radial_4122_13762" cx="0" cy="0" r="1" gradientUnits="userSpaceOnUse" gradientTransform="translate(51.395 74.1312) rotate(76.0912) scale(39.6249 26.1609)">
<stop stop-color="#1A3D9C"/>
<stop offset="0.06" stop-color="#1A3D9C" stop-opacity="0.88"/>
<stop offset="0.21" stop-color="#1A3D9C" stop-opacity="0.61"/>
<stop offset="0.36" stop-color="#1A3D9C" stop-opacity="0.39"/>
<stop offset="0.51" stop-color="#1A3D9C" stop-opacity="0.22"/>
<stop offset="0.67" stop-color="#1A3D9C" stop-opacity="0.1"/>
<stop offset="0.83" stop-color="#1A3D9C" stop-opacity="0.02"/>
<stop offset="1" stop-color="#1A3D9C" stop-opacity="0"/>
</radialGradient>
<radialGradient id="paint31_radial_4122_13762" cx="0" cy="0" r="1" gradientUnits="userSpaceOnUse" gradientTransform="translate(51.395 74.1312) rotate(76.0912) scale(39.6249 26.1609)">
<stop stop-color="#1B3E9E"/>
<stop offset="0.06" stop-color="#1B3E9E" stop-opacity="0.87"/>
<stop offset="0.21" stop-color="#1B3E9D" stop-opacity="0.61"/>
<stop offset="0.36" stop-color="#1A3D9D" stop-opacity="0.39"/>
<stop offset="0.52" stop-color="#1A3D9C" stop-opacity="0.22"/>
<stop offset="0.67" stop-color="#1A3D9C" stop-opacity="0.1"/>
<stop offset="0.83" stop-color="#1A3D9C" stop-opacity="0.02"/>
<stop offset="1" stop-color="#1A3D9C" stop-opacity="0"/>
</radialGradient>
<radialGradient id="paint32_radial_4122_13762" cx="0" cy="0" r="1" gradientUnits="userSpaceOnUse" gradientTransform="translate(53.92 72.8894) rotate(76.0887) scale(30.3183 20.0153)">
<stop stop-color="#183991"/>
<stop offset="0.03" stop-color="#183992" stop-opacity="0.95"/>
<stop offset="0.18" stop-color="#193A95" stop-opacity="0.66"/>
<stop offset="0.34" stop-color="#193B97" stop-opacity="0.42"/>
<stop offset="0.5" stop-color="#1A3C99" stop-opacity="0.24"/>
<stop offset="0.66" stop-color="#1A3D9B" stop-opacity="0.1"/>
<stop offset="0.82" stop-color="#1A3D9C" stop-opacity="0.03"/>
<stop offset="1" stop-color="#1A3D9C" stop-opacity="0"/>
</radialGradient>
<radialGradient id="paint33_radial_4122_13762" cx="0" cy="0" r="1" gradientUnits="userSpaceOnUse" gradientTransform="translate(60.6587 74.7819) rotate(87.1289) scale(23.9514 21.0938)">
<stop offset="0.04" stop-color="#2453D6" stop-opacity="0.6"/>
<stop offset="0.2" stop-color="#2453D6" stop-opacity="0.49"/>
<stop offset="0.52" stop-color="#2453D6" stop-opacity="0.2"/>
<stop offset="0.73" stop-color="#2453D6" stop-opacity="0"/>
</radialGradient>
<linearGradient id="paint34_linear_4122_13762" x1="107.423" y1="19.4228" x2="80.5087" y2="85.8871" gradientUnits="userSpaceOnUse">
<stop stop-color="#3774FF"/>
<stop offset="0.05" stop-color="#3774FF" stop-opacity="0.91"/>
<stop offset="0.16" stop-color="#3774FF" stop-opacity="0.66"/>
<stop offset="0.32" stop-color="#3774FF" stop-opacity="0.28"/>
<stop offset="0.43" stop-color="#3774FF" stop-opacity="0"/>
</linearGradient>
<clipPath id="clip0_4122_13762">
<rect width="129" height="93.8182" fill="white" transform="translate(17.0017 34.6133)"/>
</clipPath>
</defs>
</svg>
